<svg width="379" height="422" viewBox="0 0 379 422" fill="none" xmlns="http://www.w3.org/2000/svg">
<path d="M26.5 47.5L49.5 157.5L39.5 178.5L59.5 231.5L0.5 301.5L59.5 400.5L123.5 421.5L223.861 409.5L267.5 399.5L352.5 380.5L366.5 314L331.5 270.808L307.5 241.45L331.5 222.5V171.5L300.5 147.5L296.5 40.5L236.5 0.5L26.5 47.5Z" fill="#C3262D" fill-opacity="0.07"/>
<path fill-rule="evenodd" clip-rule="evenodd" d="M258.649 106.267C257.948 106.001 257.058 106.001 255.279 106.001C253.5 106.001 252.61 106.001 251.91 106.267C251.446 106.443 251.025 106.7 250.67 107.026C250.315 107.351 250.034 107.737 249.842 108.162C249.666 108.552 249.596 109.009 249.569 109.672C249.556 110.152 249.412 110.62 249.148 111.034C248.884 111.448 248.51 111.794 248.061 112.04C247.604 112.274 247.09 112.398 246.567 112.4C246.044 112.403 245.528 112.284 245.069 112.054C244.427 111.742 243.964 111.571 243.503 111.515C242.5 111.394 241.485 111.643 240.682 112.208C240.082 112.633 239.635 113.338 238.746 114.751L238.727 114.781C237.85 116.173 237.409 116.873 237.312 117.559C237.246 118.015 237.279 118.478 237.409 118.922C237.539 119.367 237.763 119.783 238.068 120.148C238.351 120.484 238.746 120.765 239.359 121.119C240.262 121.639 240.842 122.524 240.842 123.501C240.842 124.477 240.262 125.363 239.359 125.881C238.746 126.236 238.349 126.518 238.068 126.854C237.763 127.218 237.539 127.635 237.409 128.079C237.279 128.523 237.246 128.986 237.312 129.442C237.411 130.13 237.855 130.837 238.741 132.246L238.744 132.251L238.747 132.256C239.637 133.665 240.081 134.369 240.682 134.793C241.08 135.073 241.534 135.278 242.018 135.397C242.503 135.516 243.008 135.547 243.505 135.486C243.964 135.43 244.427 135.259 245.069 134.947C245.528 134.718 246.044 134.598 246.567 134.601C247.09 134.603 247.604 134.727 248.061 134.961C248.983 135.451 249.531 136.353 249.569 137.329C249.596 137.994 249.664 138.449 249.842 138.839C250.034 139.264 250.315 139.65 250.67 139.976C251.025 140.301 251.446 140.559 251.91 140.735C252.61 141.001 253.5 141.001 255.279 141.001C257.058 141.001 257.948 141.001 258.649 140.735C259.112 140.559 259.534 140.301 259.888 139.976C260.243 139.65 260.524 139.264 260.716 138.839C260.892 138.449 260.963 137.994 260.989 137.329C261.028 136.353 261.575 135.45 262.498 134.961C262.954 134.727 263.468 134.603 263.992 134.601C264.515 134.598 265.03 134.718 265.489 134.947C266.131 135.259 266.595 135.43 267.053 135.486C267.55 135.547 268.055 135.516 268.54 135.397C269.024 135.278 269.479 135.073 269.877 134.793C270.477 134.371 270.921 133.665 271.808 132.258L271.813 132.251L271.832 132.22C272.709 130.828 273.15 130.128 273.246 129.442C273.312 128.986 273.279 128.523 273.149 128.079C273.02 127.635 272.796 127.218 272.49 126.854C272.208 126.518 271.812 126.236 271.2 125.882C270.753 125.633 270.382 125.283 270.123 124.867C269.863 124.45 269.724 123.98 269.716 123.501C269.716 122.524 270.297 121.639 271.2 121.121C271.812 120.765 272.21 120.484 272.49 120.148C272.796 119.783 273.02 119.367 273.149 118.922C273.279 118.478 273.312 118.015 273.246 117.559C273.147 116.871 272.703 116.165 271.818 114.756L271.814 114.751L271.811 114.746C270.922 113.337 270.477 112.633 269.877 112.208C269.479 111.928 269.024 111.723 268.54 111.604C268.055 111.485 267.55 111.455 267.053 111.515C266.595 111.571 266.131 111.742 265.487 112.054C265.028 112.283 264.513 112.402 263.991 112.4C263.468 112.397 262.954 112.274 262.498 112.04C262.048 111.794 261.674 111.448 261.41 111.034C261.147 110.62 261.002 110.152 260.989 109.672C260.963 109.007 260.894 108.552 260.716 108.162C260.524 107.737 260.243 107.351 259.888 107.026C259.534 106.7 259.112 106.443 258.649 106.267ZM255.279 128.751C258.442 128.751 261.007 126.4 261.007 123.501C261.007 120.601 258.442 118.251 255.279 118.251C252.116 118.251 249.552 120.601 249.552 123.501C249.552 126.4 252.116 128.751 255.279 128.751Z" fill="#A73533" fill-opacity="0.4"/>
<path fill-rule="evenodd" clip-rule="evenodd" d="M246.082 60.7352C245.351 59.9399 244.174 59.3829 241.819 58.2691C239.465 57.1552 238.288 56.5981 237.166 56.5163C236.423 56.462 235.676 56.5443 234.968 56.7583C234.259 56.9724 233.603 57.314 233.037 57.7638C232.518 58.1773 232.089 58.7456 231.566 59.6184C231.197 60.2536 230.661 60.7915 230.007 61.1818C229.354 61.572 228.605 61.8018 227.83 61.8499C227.054 61.878 226.283 61.7227 225.589 61.3985C224.894 61.0742 224.3 60.5916 223.861 59.9959C223.242 59.1765 222.754 58.6561 222.186 58.293C220.947 57.5025 219.421 57.2014 217.944 57.4559C216.838 57.651 215.729 58.3172 213.514 59.6543L213.466 59.6831C211.282 61.0011 210.184 61.6639 209.552 62.5238C209.13 63.0941 208.833 63.7359 208.679 64.4127C208.524 65.0896 208.514 65.7882 208.65 66.4685C208.777 67.096 209.093 67.7212 209.644 68.579C210.456 69.8414 210.574 71.3923 209.856 72.702C209.138 74.0117 207.719 74.836 206.144 74.9654C205.072 75.0583 204.339 75.1876 203.721 75.4625C203.049 75.7606 202.447 76.1788 201.949 76.6932C201.451 77.2076 201.067 77.8082 200.819 78.4606C200.444 79.4463 200.512 80.6712 200.648 83.1151L200.649 83.124L200.649 83.1328C200.79 85.5791 200.861 86.8017 201.344 87.7474C201.664 88.3718 202.114 88.9313 202.668 89.3941C203.222 89.8569 203.868 90.2138 204.57 90.4444C205.217 90.6561 205.957 90.7166 207.035 90.7004C207.811 90.6797 208.581 90.8423 209.271 91.1732C209.962 91.504 210.551 91.9921 210.983 92.592C211.843 93.8264 211.905 95.3781 211.238 96.7117C210.785 97.6203 210.541 98.2735 210.489 98.9081C210.431 99.5981 210.519 100.292 210.75 100.95C210.98 101.609 211.348 102.218 211.832 102.744C212.563 103.54 213.74 104.097 216.095 105.21C218.449 106.324 219.626 106.881 220.748 106.963C221.491 107.017 222.238 106.935 222.946 106.721C223.655 106.507 224.311 106.165 224.877 105.716C225.396 105.302 225.824 104.736 226.348 103.861C227.117 102.575 228.505 101.707 230.084 101.63C230.86 101.602 231.632 101.757 232.326 102.081C233.02 102.405 233.614 102.888 234.053 103.484C234.672 104.303 235.16 104.823 235.725 105.185C236.339 105.577 237.03 105.853 237.758 105.997C238.486 106.141 239.238 106.15 239.97 106.024C241.075 105.832 242.182 105.164 244.39 103.832L244.401 103.825L244.448 103.796C246.632 102.478 247.73 101.816 248.362 100.956C248.784 100.385 249.081 99.7436 249.235 99.0668C249.39 98.3899 249.4 97.6914 249.264 97.0111C249.137 96.3836 248.821 95.7583 248.27 94.9006C247.863 94.2861 247.629 93.5855 247.592 92.8644C247.555 92.1434 247.715 91.4253 248.058 90.7775C248.776 89.4679 250.195 88.6435 251.77 88.5141C252.842 88.4213 253.575 88.2921 254.193 88.0172C254.865 87.7191 255.467 87.3009 255.965 86.7865C256.463 86.2721 256.847 85.6715 257.096 85.0191C257.47 84.0334 257.402 82.8084 257.266 80.3645L257.265 80.3557L257.265 80.3468C257.124 77.9005 257.053 76.678 256.571 75.7323C256.25 75.1079 255.8 74.5482 255.246 74.0854C254.692 73.6227 254.046 73.2658 253.344 73.0351C252.697 72.8234 251.957 72.763 250.877 72.7781C250.101 72.7985 249.332 72.6359 248.642 72.3053C247.952 71.9747 247.363 71.487 246.931 70.8877C246.517 70.2771 246.277 69.5789 246.232 68.8584C246.187 68.1379 246.34 67.4186 246.676 66.7678C247.129 65.8592 247.373 65.206 247.425 64.5714C247.483 63.8814 247.395 63.1874 247.164 62.5292C246.934 61.8709 246.566 61.2614 246.082 60.7352ZM225.098 88.7811C229.283 90.7613 234.404 89.2141 236.535 85.3253C238.666 81.4365 237.001 76.6788 232.816 74.6986C228.631 72.7184 223.51 74.2655 221.379 78.1543C219.248 82.0431 220.913 86.8009 225.098 88.7811Z" fill="#A73533" fill-opacity="0.7"/>
<path d="M200.915 270.808L201.484 159.361H226.78V241.45C226.098 267.901 209.253 272.044 200.915 270.808Z" fill="#A73533"/>
<path d="M129.86 83.8273C129.86 90.9111 124.133 96.6535 117.07 96.6535C110.006 96.6535 104.28 90.9111 104.28 83.8273C104.28 76.7434 110.006 71.0009 117.07 71.0009C124.133 71.0009 129.86 76.7434 129.86 83.8273Z" fill="#A73533"/>
<path fill-rule="evenodd" clip-rule="evenodd" d="M180.167 256.557V152.235H226.78V125.727H130.997C130.902 117.366 125.54 100.929 104.848 102.069V211.237C107.69 219.978 116.899 236.319 130.997 231.759V152.235H152.598V231.759C152.977 240.025 159.021 256.557 180.167 256.557ZM213.137 149.1C218.631 149.1 223.085 144.633 223.085 139.123C223.085 133.614 218.631 129.147 213.137 129.147C207.643 129.147 203.189 133.614 203.189 139.123C203.189 144.633 207.643 149.1 213.137 149.1Z" fill="#A73533"/>
<path d="M94.062 288.04V302H91.262V288.04H94.062ZM106.728 288.04V290.3H103.008V302H100.208V290.3H96.4884V288.04H106.728ZM111.971 288.04V302H109.171V288.04H111.971ZM128.923 288.04V290.3H123.103V293.88H127.563V296.1H123.103V302H120.303V288.04H128.923ZM134.109 292.64C134.469 292.053 134.936 291.593 135.509 291.26C136.096 290.927 136.762 290.76 137.509 290.76V293.7H136.769C135.889 293.7 135.222 293.907 134.769 294.32C134.329 294.733 134.109 295.453 134.109 296.48V302H131.309V290.92H134.109V292.64ZM150.095 296.22C150.095 296.62 150.068 296.98 150.015 297.3H141.915C141.982 298.1 142.262 298.727 142.755 299.18C143.248 299.633 143.855 299.86 144.575 299.86C145.615 299.86 146.355 299.413 146.795 298.52H149.815C149.495 299.587 148.882 300.467 147.975 301.16C147.068 301.84 145.955 302.18 144.635 302.18C143.568 302.18 142.608 301.947 141.755 301.48C140.915 301 140.255 300.327 139.775 299.46C139.308 298.593 139.075 297.593 139.075 296.46C139.075 295.313 139.308 294.307 139.775 293.44C140.242 292.573 140.895 291.907 141.735 291.44C142.575 290.973 143.542 290.74 144.635 290.74C145.688 290.74 146.628 290.967 147.455 291.42C148.295 291.873 148.942 292.52 149.395 293.36C149.862 294.187 150.095 295.14 150.095 296.22ZM147.195 295.42C147.182 294.7 146.922 294.127 146.415 293.7C145.908 293.26 145.288 293.04 144.555 293.04C143.862 293.04 143.275 293.253 142.795 293.68C142.328 294.093 142.042 294.673 141.935 295.42H147.195ZM162.839 296.22C162.839 296.62 162.812 296.98 162.759 297.3H154.659C154.725 298.1 155.005 298.727 155.499 299.18C155.992 299.633 156.599 299.86 157.319 299.86C158.359 299.86 159.099 299.413 159.539 298.52H162.559C162.239 299.587 161.625 300.467 160.719 301.16C159.812 301.84 158.699 302.18 157.379 302.18C156.312 302.18 155.352 301.947 154.499 301.48C153.659 301 152.999 300.327 152.519 299.46C152.052 298.593 151.819 297.593 151.819 296.46C151.819 295.313 152.052 294.307 152.519 293.44C152.985 292.573 153.639 291.907 154.479 291.44C155.319 290.973 156.285 290.74 157.379 290.74C158.432 290.74 159.372 290.967 160.199 291.42C161.039 291.873 161.685 292.52 162.139 293.36C162.605 294.187 162.839 295.14 162.839 296.22ZM159.939 295.42C159.925 294.7 159.665 294.127 159.159 293.7C158.652 293.26 158.032 293.04 157.299 293.04C156.605 293.04 156.019 293.253 155.539 293.68C155.072 294.093 154.785 294.673 154.679 295.42H159.939ZM168.082 287.2V302H165.282V287.2H168.082ZM170.529 296.42C170.529 295.3 170.749 294.307 171.189 293.44C171.642 292.573 172.249 291.907 173.009 291.44C173.782 290.973 174.642 290.74 175.589 290.74C176.415 290.74 177.135 290.907 177.749 291.24C178.375 291.573 178.875 291.993 179.249 292.5V290.92H182.069V302H179.249V300.38C178.889 300.9 178.389 301.333 177.749 301.68C177.122 302.013 176.395 302.18 175.569 302.18C174.635 302.18 173.782 301.94 173.009 301.46C172.249 300.98 171.642 300.307 171.189 299.44C170.749 298.56 170.529 297.553 170.529 296.42ZM179.249 296.46C179.249 295.78 179.115 295.2 178.849 294.72C178.582 294.227 178.222 293.853 177.769 293.6C177.315 293.333 176.829 293.2 176.309 293.2C175.789 293.2 175.309 293.327 174.869 293.58C174.429 293.833 174.069 294.207 173.789 294.7C173.522 295.18 173.389 295.753 173.389 296.42C173.389 297.087 173.522 297.673 173.789 298.18C174.069 298.673 174.429 299.053 174.869 299.32C175.322 299.587 175.802 299.72 176.309 299.72C176.829 299.72 177.315 299.593 177.769 299.34C178.222 299.073 178.582 298.7 178.849 298.22C179.115 297.727 179.249 297.14 179.249 296.46ZM191.343 290.76C192.663 290.76 193.73 291.18 194.543 292.02C195.357 292.847 195.763 294.007 195.763 295.5V302H192.963V295.88C192.963 295 192.743 294.327 192.303 293.86C191.863 293.38 191.263 293.14 190.503 293.14C189.73 293.14 189.117 293.38 188.663 293.86C188.223 294.327 188.003 295 188.003 295.88V302H185.203V290.92H188.003V292.3C188.377 291.82 188.85 291.447 189.423 291.18C190.01 290.9 190.65 290.76 191.343 290.76ZM198.106 296.46C198.106 295.313 198.339 294.313 198.806 293.46C199.273 292.593 199.919 291.927 200.746 291.46C201.573 290.98 202.519 290.74 203.586 290.74C204.959 290.74 206.093 291.087 206.986 291.78C207.893 292.46 208.499 293.42 208.806 294.66H205.786C205.626 294.18 205.353 293.807 204.966 293.54C204.593 293.26 204.126 293.12 203.566 293.12C202.766 293.12 202.133 293.413 201.666 294C201.199 294.573 200.966 295.393 200.966 296.46C200.966 297.513 201.199 298.333 201.666 298.92C202.133 299.493 202.766 299.78 203.566 299.78C204.699 299.78 205.439 299.273 205.786 298.26H208.806C208.499 299.46 207.893 300.413 206.986 301.12C206.079 301.827 204.946 302.18 203.586 302.18C202.519 302.18 201.573 301.947 200.746 301.48C199.919 301 199.273 300.333 198.806 299.48C198.339 298.613 198.106 297.607 198.106 296.46ZM212.677 289.6C212.184 289.6 211.771 289.447 211.437 289.14C211.117 288.82 210.957 288.427 210.957 287.96C210.957 287.493 211.117 287.107 211.437 286.8C211.771 286.48 212.184 286.32 212.677 286.32C213.171 286.32 213.577 286.48 213.897 286.8C214.231 287.107 214.397 287.493 214.397 287.96C214.397 288.427 214.231 288.82 213.897 289.14C213.577 289.447 213.171 289.6 212.677 289.6ZM214.057 290.92V302H211.257V290.92H214.057ZM223.364 290.76C224.684 290.76 225.75 291.18 226.564 292.02C227.377 292.847 227.784 294.007 227.784 295.5V302H224.984V295.88C224.984 295 224.764 294.327 224.324 293.86C223.884 293.38 223.284 293.14 222.524 293.14C221.75 293.14 221.137 293.38 220.684 293.86C220.244 294.327 220.024 295 220.024 295.88V302H217.224V290.92H220.024V292.3C220.397 291.82 220.87 291.447 221.444 291.18C222.03 290.9 222.67 290.76 223.364 290.76ZM235.186 290.74C236.013 290.74 236.74 290.907 237.366 291.24C237.993 291.56 238.486 291.98 238.846 292.5V290.92H241.666V302.08C241.666 303.107 241.46 304.02 241.046 304.82C240.633 305.633 240.013 306.273 239.186 306.74C238.36 307.22 237.36 307.46 236.186 307.46C234.613 307.46 233.32 307.093 232.306 306.36C231.306 305.627 230.74 304.627 230.606 303.36H233.386C233.533 303.867 233.846 304.267 234.326 304.56C234.82 304.867 235.413 305.02 236.106 305.02C236.92 305.02 237.58 304.773 238.086 304.28C238.593 303.8 238.846 303.067 238.846 302.08V300.36C238.486 300.88 237.986 301.313 237.346 301.66C236.72 302.007 236 302.18 235.186 302.18C234.253 302.18 233.4 301.94 232.626 301.46C231.853 300.98 231.24 300.307 230.786 299.44C230.346 298.56 230.126 297.553 230.126 296.42C230.126 295.3 230.346 294.307 230.786 293.44C231.24 292.573 231.846 291.907 232.606 291.44C233.38 290.973 234.24 290.74 235.186 290.74ZM238.846 296.46C238.846 295.78 238.713 295.2 238.446 294.72C238.18 294.227 237.82 293.853 237.366 293.6C236.913 293.333 236.426 293.2 235.906 293.2C235.386 293.2 234.906 293.327 234.466 293.58C234.026 293.833 233.666 294.207 233.386 294.7C233.12 295.18 232.986 295.753 232.986 296.42C232.986 297.087 233.12 297.673 233.386 298.18C233.666 298.673 234.026 299.053 234.466 299.32C234.92 299.587 235.4 299.72 235.906 299.72C236.426 299.72 236.913 299.593 237.366 299.34C237.82 299.073 238.18 298.7 238.446 298.22C238.713 297.727 238.846 297.14 238.846 296.46ZM261.547 288.04V302H258.747V296.06H252.767V302H249.967V288.04H252.767V293.78H258.747V288.04H261.547ZM275.163 290.92V302H272.343V300.6C271.983 301.08 271.509 301.46 270.923 301.74C270.349 302.007 269.723 302.14 269.043 302.14C268.176 302.14 267.409 301.96 266.743 301.6C266.076 301.227 265.549 300.687 265.163 299.98C264.789 299.26 264.603 298.407 264.603 297.42V290.92H267.403V297.02C267.403 297.9 267.623 298.58 268.063 299.06C268.503 299.527 269.103 299.76 269.863 299.76C270.636 299.76 271.243 299.527 271.683 299.06C272.123 298.58 272.343 297.9 272.343 297.02V290.92H275.163ZM281.125 292.54C281.485 292.007 281.979 291.573 282.605 291.24C283.245 290.907 283.972 290.74 284.785 290.74C285.732 290.74 286.585 290.973 287.345 291.44C288.119 291.907 288.725 292.573 289.165 293.44C289.619 294.293 289.845 295.287 289.845 296.42C289.845 297.553 289.619 298.56 289.165 299.44C288.725 300.307 288.119 300.98 287.345 301.46C286.585 301.94 285.732 302.18 284.785 302.18C283.959 302.18 283.232 302.02 282.605 301.7C281.992 301.367 281.499 300.94 281.125 300.42V302H278.325V287.2H281.125V292.54ZM286.985 296.42C286.985 295.753 286.845 295.18 286.565 294.7C286.299 294.207 285.939 293.833 285.485 293.58C285.045 293.327 284.565 293.2 284.045 293.2C283.539 293.2 283.059 293.333 282.605 293.6C282.165 293.853 281.805 294.227 281.525 294.72C281.259 295.213 281.125 295.793 281.125 296.46C281.125 297.127 281.259 297.707 281.525 298.2C281.805 298.693 282.165 299.073 282.605 299.34C283.059 299.593 283.539 299.72 284.045 299.72C284.565 299.72 285.045 299.587 285.485 299.32C285.939 299.053 286.299 298.673 286.565 298.18C286.845 297.687 286.985 297.1 286.985 296.42Z" fill="#BF272D"/>
<path d="M60.5193 330.098C59.6139 330.098 58.7786 329.888 58.0133 329.468C57.2573 329.039 56.6553 328.446 56.2073 327.69C55.7686 326.925 55.5493 326.066 55.5493 325.114C55.5493 324.162 55.7686 323.308 56.2073 322.552C56.6553 321.796 57.2573 321.208 58.0133 320.788C58.7786 320.359 59.6139 320.144 60.5193 320.144C61.4339 320.144 62.2693 320.359 63.0253 320.788C63.7906 321.208 64.3926 321.796 64.8313 322.552C65.2699 323.308 65.4893 324.162 65.4893 325.114C65.4893 326.066 65.2699 326.925 64.8313 327.69C64.3926 328.446 63.7906 329.039 63.0253 329.468C62.2693 329.888 61.4339 330.098 60.5193 330.098ZM60.5193 328.712C61.1633 328.712 61.7373 328.567 62.2413 328.278C62.7453 327.979 63.1373 327.559 63.4173 327.018C63.7066 326.467 63.8513 325.833 63.8513 325.114C63.8513 324.395 63.7066 323.765 63.4173 323.224C63.1373 322.683 62.7453 322.267 62.2413 321.978C61.7373 321.689 61.1633 321.544 60.5193 321.544C59.8753 321.544 59.3013 321.689 58.7973 321.978C58.2933 322.267 57.8966 322.683 57.6073 323.224C57.3273 323.765 57.1873 324.395 57.1873 325.114C57.1873 325.833 57.3273 326.467 57.6073 327.018C57.8966 327.559 58.2933 327.979 58.7973 328.278C59.3013 328.567 59.8753 328.712 60.5193 328.712ZM70.4058 330.126C69.6778 330.126 69.0198 329.963 68.4318 329.636C67.8438 329.3 67.3818 328.833 67.0458 328.236C66.7098 327.629 66.5418 326.929 66.5418 326.136C66.5418 325.352 66.7144 324.657 67.0598 324.05C67.4051 323.443 67.8764 322.977 68.4738 322.65C69.0711 322.323 69.7384 322.16 70.4758 322.16C71.2131 322.16 71.8804 322.323 72.4778 322.65C73.0751 322.977 73.5464 323.443 73.8918 324.05C74.2371 324.657 74.4098 325.352 74.4098 326.136C74.4098 326.92 74.2324 327.615 73.8778 328.222C73.5231 328.829 73.0378 329.3 72.4218 329.636C71.8151 329.963 71.1431 330.126 70.4058 330.126ZM70.4058 328.74C70.8164 328.74 71.1991 328.642 71.5538 328.446C71.9178 328.25 72.2118 327.956 72.4358 327.564C72.6598 327.172 72.7718 326.696 72.7718 326.136C72.7718 325.576 72.6644 325.105 72.4498 324.722C72.2351 324.33 71.9504 324.036 71.5958 323.84C71.2411 323.644 70.8584 323.546 70.4478 323.546C70.0371 323.546 69.6544 323.644 69.2998 323.84C68.9544 324.036 68.6791 324.33 68.4738 324.722C68.2684 325.105 68.1658 325.576 68.1658 326.136C68.1658 326.967 68.3758 327.611 68.7958 328.068C69.2251 328.516 69.7618 328.74 70.4058 328.74ZM77.5835 323.42C77.8542 323.065 78.2228 322.767 78.6895 322.524C79.1562 322.281 79.6835 322.16 80.2715 322.16C80.9435 322.16 81.5548 322.328 82.1055 322.664C82.6655 322.991 83.1042 323.453 83.4215 324.05C83.7388 324.647 83.8975 325.333 83.8975 326.108C83.8975 326.883 83.7388 327.578 83.4215 328.194C83.1042 328.801 82.6655 329.277 82.1055 329.622C81.5548 329.958 80.9435 330.126 80.2715 330.126C79.6835 330.126 79.1608 330.009 78.7035 329.776C78.2462 329.533 77.8728 329.235 77.5835 328.88V333.668H75.9875V322.286H77.5835V323.42ZM82.2735 326.108C82.2735 325.576 82.1615 325.119 81.9375 324.736C81.7228 324.344 81.4335 324.05 81.0695 323.854C80.7148 323.649 80.3322 323.546 79.9215 323.546C79.5202 323.546 79.1375 323.649 78.7735 323.854C78.4188 324.059 78.1295 324.358 77.9055 324.75C77.6908 325.142 77.5835 325.604 77.5835 326.136C77.5835 326.668 77.6908 327.135 77.9055 327.536C78.1295 327.928 78.4188 328.227 78.7735 328.432C79.1375 328.637 79.5202 328.74 79.9215 328.74C80.3322 328.74 80.7148 328.637 81.0695 328.432C81.4335 328.217 81.7228 327.909 81.9375 327.508C82.1615 327.107 82.2735 326.64 82.2735 326.108ZM88.2758 330.126C87.6691 330.126 87.1231 330.019 86.6378 329.804C86.1618 329.58 85.7838 329.281 85.5038 328.908C85.2238 328.525 85.0744 328.101 85.0558 327.634H86.7078C86.7358 327.961 86.8898 328.236 87.1698 328.46C87.4591 328.675 87.8184 328.782 88.2478 328.782C88.6958 328.782 89.0411 328.698 89.2838 328.53C89.5358 328.353 89.6618 328.129 89.6618 327.858C89.6618 327.569 89.5218 327.354 89.2418 327.214C88.9711 327.074 88.5371 326.92 87.9398 326.752C87.3611 326.593 86.8898 326.439 86.5258 326.29C86.1618 326.141 85.8444 325.912 85.5738 325.604C85.3124 325.296 85.1818 324.89 85.1818 324.386C85.1818 323.975 85.3031 323.602 85.5458 323.266C85.7884 322.921 86.1338 322.65 86.5818 322.454C87.0391 322.258 87.5618 322.16 88.1498 322.16C89.0271 322.16 89.7318 322.384 90.2638 322.832C90.8051 323.271 91.0944 323.873 91.1318 324.638H89.5358C89.5078 324.293 89.3678 324.017 89.1158 323.812C88.8638 323.607 88.5231 323.504 88.0938 323.504C87.6738 323.504 87.3518 323.583 87.1278 323.742C86.9038 323.901 86.7918 324.111 86.7918 324.372C86.7918 324.577 86.8664 324.75 87.0158 324.89C87.1651 325.03 87.3471 325.142 87.5618 325.226C87.7764 325.301 88.0938 325.399 88.5138 325.52C89.0738 325.669 89.5311 325.823 89.8858 325.982C90.2498 326.131 90.5624 326.355 90.8238 326.654C91.0851 326.953 91.2204 327.349 91.2298 327.844C91.2298 328.283 91.1084 328.675 90.8658 329.02C90.6231 329.365 90.2778 329.636 89.8298 329.832C89.3911 330.028 88.8731 330.126 88.2758 330.126ZM94.9563 320.27L94.7743 327.06H93.4443L93.2623 320.27H94.9563ZM94.1583 330.098C93.869 330.098 93.6263 330 93.4303 329.804C93.2343 329.608 93.1363 329.365 93.1363 329.076C93.1363 328.787 93.2343 328.544 93.4303 328.348C93.6263 328.152 93.869 328.054 94.1583 328.054C94.4383 328.054 94.6763 328.152 94.8723 328.348C95.0683 328.544 95.1663 328.787 95.1663 329.076C95.1663 329.365 95.0683 329.608 94.8723 329.804C94.6763 330 94.4383 330.098 94.1583 330.098ZM102.685 328.712H105.975V330H101.089V320.27H102.685V328.712ZM110.656 330.126C109.928 330.126 109.27 329.963 108.682 329.636C108.094 329.3 107.632 328.833 107.296 328.236C106.96 327.629 106.792 326.929 106.792 326.136C106.792 325.352 106.964 324.657 107.31 324.05C107.655 323.443 108.126 322.977 108.724 322.65C109.321 322.323 109.988 322.16 110.726 322.16C111.463 322.16 112.13 322.323 112.728 322.65C113.325 322.977 113.796 323.443 114.142 324.05C114.487 324.657 114.66 325.352 114.66 326.136C114.66 326.92 114.482 327.615 114.128 328.222C113.773 328.829 113.288 329.3 112.672 329.636C112.065 329.963 111.393 330.126 110.656 330.126ZM110.656 328.74C111.066 328.74 111.449 328.642 111.804 328.446C112.168 328.25 112.462 327.956 112.686 327.564C112.91 327.172 113.022 326.696 113.022 326.136C113.022 325.576 112.914 325.105 112.7 324.722C112.485 324.33 112.2 324.036 111.846 323.84C111.491 323.644 111.108 323.546 110.698 323.546C110.287 323.546 109.904 323.644 109.55 323.84C109.204 324.036 108.929 324.33 108.724 324.722C108.518 325.105 108.416 325.576 108.416 326.136C108.416 326.967 108.626 327.611 109.046 328.068C109.475 328.516 110.012 328.74 110.656 328.74ZM119.584 330.126C118.856 330.126 118.198 329.963 117.61 329.636C117.022 329.3 116.56 328.833 116.224 328.236C115.888 327.629 115.72 326.929 115.72 326.136C115.72 325.352 115.892 324.657 116.238 324.05C116.583 323.443 117.054 322.977 117.652 322.65C118.249 322.323 118.916 322.16 119.654 322.16C120.391 322.16 121.058 322.323 121.656 322.65C122.253 322.977 122.724 323.443 123.07 324.05C123.415 324.657 123.588 325.352 123.588 326.136C123.588 326.92 123.41 327.615 123.056 328.222C122.701 328.829 122.216 329.3 121.6 329.636C120.993 329.963 120.321 330.126 119.584 330.126ZM119.584 328.74C119.994 328.74 120.377 328.642 120.732 328.446C121.096 328.25 121.39 327.956 121.614 327.564C121.838 327.172 121.95 326.696 121.95 326.136C121.95 325.576 121.842 325.105 121.628 324.722C121.413 324.33 121.128 324.036 120.774 323.84C120.419 323.644 120.036 323.546 119.626 323.546C119.215 323.546 118.832 323.644 118.478 323.84C118.132 324.036 117.857 324.33 117.652 324.722C117.446 325.105 117.344 325.576 117.344 326.136C117.344 326.967 117.554 327.611 117.974 328.068C118.403 328.516 118.94 328.74 119.584 328.74ZM128.217 326.15L131.773 330H129.617L126.761 326.682V330H125.165V319.64H126.761V325.66L129.561 322.286H131.773L128.217 326.15ZM135.717 330.126C135.111 330.126 134.565 330.019 134.079 329.804C133.603 329.58 133.225 329.281 132.945 328.908C132.665 328.525 132.516 328.101 132.497 327.634H134.149C134.177 327.961 134.331 328.236 134.611 328.46C134.901 328.675 135.26 328.782 135.689 328.782C136.137 328.782 136.483 328.698 136.725 328.53C136.977 328.353 137.103 328.129 137.103 327.858C137.103 327.569 136.963 327.354 136.683 327.214C136.413 327.074 135.979 326.92 135.381 326.752C134.803 326.593 134.331 326.439 133.967 326.29C133.603 326.141 133.286 325.912 133.015 325.604C132.754 325.296 132.623 324.89 132.623 324.386C132.623 323.975 132.745 323.602 132.987 323.266C133.23 322.921 133.575 322.65 134.023 322.454C134.481 322.258 135.003 322.16 135.591 322.16C136.469 322.16 137.173 322.384 137.705 322.832C138.247 323.271 138.536 323.873 138.573 324.638H136.977C136.949 324.293 136.809 324.017 136.557 323.812C136.305 323.607 135.965 323.504 135.535 323.504C135.115 323.504 134.793 323.583 134.569 323.742C134.345 323.901 134.233 324.111 134.233 324.372C134.233 324.577 134.308 324.75 134.457 324.89C134.607 325.03 134.789 325.142 135.003 325.226C135.218 325.301 135.535 325.399 135.955 325.52C136.515 325.669 136.973 325.823 137.327 325.982C137.691 326.131 138.004 326.355 138.265 326.654C138.527 326.953 138.662 327.349 138.671 327.844C138.671 328.283 138.55 328.675 138.307 329.02C138.065 329.365 137.719 329.636 137.271 329.832C136.833 330.028 136.315 330.126 135.717 330.126ZM145.628 319.64V330H144.032V319.64H145.628ZM148.536 321.264C148.246 321.264 148.004 321.166 147.808 320.97C147.612 320.774 147.514 320.531 147.514 320.242C147.514 319.953 147.612 319.71 147.808 319.514C148.004 319.318 148.246 319.22 148.536 319.22C148.816 319.22 149.054 319.318 149.25 319.514C149.446 319.71 149.544 319.953 149.544 320.242C149.544 320.531 149.446 320.774 149.25 320.97C149.054 321.166 148.816 321.264 148.536 321.264ZM149.32 322.286V330H147.724V322.286H149.32ZM154.467 326.15L158.023 330H155.867L153.011 326.682V330H151.415V319.64H153.011V325.66L155.811 322.286H158.023L154.467 326.15ZM166.237 325.954C166.237 326.243 166.219 326.505 166.181 326.738H160.287C160.334 327.354 160.563 327.849 160.973 328.222C161.384 328.595 161.888 328.782 162.485 328.782C163.344 328.782 163.951 328.423 164.305 327.704H166.027C165.794 328.413 165.369 328.997 164.753 329.454C164.147 329.902 163.391 330.126 162.485 330.126C161.748 330.126 161.085 329.963 160.497 329.636C159.919 329.3 159.461 328.833 159.125 328.236C158.799 327.629 158.635 326.929 158.635 326.136C158.635 325.343 158.794 324.647 159.111 324.05C159.438 323.443 159.891 322.977 160.469 322.65C161.057 322.323 161.729 322.16 162.485 322.16C163.213 322.16 163.862 322.319 164.431 322.636C165.001 322.953 165.444 323.401 165.761 323.98C166.079 324.549 166.237 325.207 166.237 325.954ZM164.571 325.45C164.562 324.862 164.352 324.391 163.941 324.036C163.531 323.681 163.022 323.504 162.415 323.504C161.865 323.504 161.393 323.681 161.001 324.036C160.609 324.381 160.376 324.853 160.301 325.45H164.571ZM178.389 322.286L173.657 333.626H172.005L173.573 329.874L170.535 322.286H172.313L174.483 328.166L176.737 322.286H178.389ZM182.939 330.126C182.211 330.126 181.553 329.963 180.965 329.636C180.377 329.3 179.915 328.833 179.579 328.236C179.243 327.629 179.075 326.929 179.075 326.136C179.075 325.352 179.248 324.657 179.593 324.05C179.938 323.443 180.41 322.977 181.007 322.65C181.604 322.323 182.272 322.16 183.009 322.16C183.746 322.16 184.414 322.323 185.011 322.65C185.608 322.977 186.08 323.443 186.425 324.05C186.77 324.657 186.943 325.352 186.943 326.136C186.943 326.92 186.766 327.615 186.411 328.222C186.056 328.829 185.571 329.3 184.955 329.636C184.348 329.963 183.676 330.126 182.939 330.126ZM182.939 328.74C183.35 328.74 183.732 328.642 184.087 328.446C184.451 328.25 184.745 327.956 184.969 327.564C185.193 327.172 185.305 326.696 185.305 326.136C185.305 325.576 185.198 325.105 184.983 324.722C184.768 324.33 184.484 324.036 184.129 323.84C183.774 323.644 183.392 323.546 182.981 323.546C182.57 323.546 182.188 323.644 181.833 323.84C181.488 324.036 181.212 324.33 181.007 324.722C180.802 325.105 180.699 325.576 180.699 326.136C180.699 326.967 180.909 327.611 181.329 328.068C181.758 328.516 182.295 328.74 182.939 328.74ZM195.507 322.286V330H193.911V329.09C193.659 329.407 193.327 329.659 192.917 329.846C192.515 330.023 192.086 330.112 191.629 330.112C191.022 330.112 190.476 329.986 189.991 329.734C189.515 329.482 189.137 329.109 188.857 328.614C188.586 328.119 188.451 327.522 188.451 326.822V322.286H190.033V326.584C190.033 327.275 190.205 327.807 190.551 328.18C190.896 328.544 191.367 328.726 191.965 328.726C192.562 328.726 193.033 328.544 193.379 328.18C193.733 327.807 193.911 327.275 193.911 326.584V322.286H195.507ZM198.481 318.842L198.312 321.712H197.221L197.039 318.842H198.481ZM201.615 323.406C201.848 323.014 202.156 322.711 202.539 322.496C202.931 322.272 203.393 322.16 203.925 322.16V323.812H203.519C202.893 323.812 202.417 323.971 202.091 324.288C201.773 324.605 201.615 325.156 201.615 325.94V330H200.019V322.286H201.615V323.406ZM212.462 325.954C212.462 326.243 212.443 326.505 212.406 326.738H206.512C206.558 327.354 206.787 327.849 207.198 328.222C207.608 328.595 208.112 328.782 208.71 328.782C209.568 328.782 210.175 328.423 210.53 327.704H212.252C212.018 328.413 211.594 328.997 210.978 329.454C210.371 329.902 209.615 330.126 208.71 330.126C207.972 330.126 207.31 329.963 206.722 329.636C206.143 329.3 205.686 328.833 205.35 328.236C205.023 327.629 204.86 326.929 204.86 326.136C204.86 325.343 205.018 324.647 205.336 324.05C205.662 323.443 206.115 322.977 206.694 322.65C207.282 322.323 207.954 322.16 208.71 322.16C209.438 322.16 210.086 322.319 210.656 322.636C211.225 322.953 211.668 323.401 211.986 323.98C212.303 324.549 212.462 325.207 212.462 325.954ZM210.796 325.45C210.786 324.862 210.576 324.391 210.166 324.036C209.755 323.681 209.246 323.504 208.64 323.504C208.089 323.504 207.618 323.681 207.226 324.036C206.834 324.381 206.6 324.853 206.526 325.45H210.796ZM217.137 326.108C217.137 325.333 217.296 324.647 217.613 324.05C217.94 323.453 218.378 322.991 218.929 322.664C219.489 322.328 220.105 322.16 220.777 322.16C221.384 322.16 221.911 322.281 222.359 322.524C222.816 322.757 223.18 323.051 223.451 323.406V322.286H225.061V330H223.451V328.852C223.18 329.216 222.812 329.519 222.345 329.762C221.878 330.005 221.346 330.126 220.749 330.126C220.086 330.126 219.48 329.958 218.929 329.622C218.378 329.277 217.94 328.801 217.613 328.194C217.296 327.578 217.137 326.883 217.137 326.108ZM223.451 326.136C223.451 325.604 223.339 325.142 223.115 324.75C222.9 324.358 222.616 324.059 222.261 323.854C221.906 323.649 221.524 323.546 221.113 323.546C220.702 323.546 220.32 323.649 219.965 323.854C219.61 324.05 219.321 324.344 219.097 324.736C218.882 325.119 218.775 325.576 218.775 326.108C218.775 326.64 218.882 327.107 219.097 327.508C219.321 327.909 219.61 328.217 219.965 328.432C220.329 328.637 220.712 328.74 221.113 328.74C221.524 328.74 221.906 328.637 222.261 328.432C222.616 328.227 222.9 327.928 223.115 327.536C223.339 327.135 223.451 326.668 223.451 326.136ZM232.39 319.64V330H230.794V319.64H232.39ZM235.298 321.264C235.008 321.264 234.766 321.166 234.57 320.97C234.374 320.774 234.276 320.531 234.276 320.242C234.276 319.953 234.374 319.71 234.57 319.514C234.766 319.318 235.008 319.22 235.298 319.22C235.578 319.22 235.816 319.318 236.012 319.514C236.208 319.71 236.306 319.953 236.306 320.242C236.306 320.531 236.208 320.774 236.012 320.97C235.816 321.166 235.578 321.264 235.298 321.264ZM236.082 322.286V330H234.486V322.286H236.082ZM240.039 323.588V327.858C240.039 328.147 240.104 328.357 240.235 328.488C240.375 328.609 240.608 328.67 240.935 328.67H241.915V330H240.655C239.936 330 239.386 329.832 239.003 329.496C238.62 329.16 238.429 328.614 238.429 327.858V323.588H237.519V322.286H238.429V320.368H240.039V322.286H241.915V323.588H240.039ZM245.248 323.588V327.858C245.248 328.147 245.313 328.357 245.444 328.488C245.584 328.609 245.817 328.67 246.144 328.67H247.124V330H245.864C245.145 330 244.595 329.832 244.212 329.496C243.829 329.16 243.638 328.614 243.638 327.858V323.588H242.728V322.286H243.638V320.368H245.248V322.286H247.124V323.588H245.248ZM250.191 319.64V330H248.595V319.64H250.191ZM259.356 325.954C259.356 326.243 259.338 326.505 259.3 326.738H253.406C253.453 327.354 253.682 327.849 254.092 328.222C254.503 328.595 255.007 328.782 255.604 328.782C256.463 328.782 257.07 328.423 257.424 327.704H259.146C258.913 328.413 258.488 328.997 257.872 329.454C257.266 329.902 256.51 330.126 255.604 330.126C254.867 330.126 254.204 329.963 253.616 329.636C253.038 329.3 252.58 328.833 252.244 328.236C251.918 327.629 251.754 326.929 251.754 326.136C251.754 325.343 251.913 324.647 252.23 324.05C252.557 323.443 253.01 322.977 253.588 322.65C254.176 322.323 254.848 322.16 255.604 322.16C256.332 322.16 256.981 322.319 257.55 322.636C258.12 322.953 258.563 323.401 258.88 323.98C259.198 324.549 259.356 325.207 259.356 325.954ZM257.69 325.45C257.681 324.862 257.471 324.391 257.06 324.036C256.65 323.681 256.141 323.504 255.534 323.504C254.984 323.504 254.512 323.681 254.12 324.036C253.728 324.381 253.495 324.853 253.42 325.45H257.69ZM267.91 330.126C267.182 330.126 266.524 329.963 265.936 329.636C265.348 329.3 264.886 328.833 264.55 328.236C264.214 327.629 264.046 326.929 264.046 326.136C264.046 325.352 264.218 324.657 264.564 324.05C264.909 323.443 265.38 322.977 265.978 322.65C266.575 322.323 267.242 322.16 267.98 322.16C268.717 322.16 269.384 322.323 269.982 322.65C270.579 322.977 271.05 323.443 271.396 324.05C271.741 324.657 271.914 325.352 271.914 326.136C271.914 326.92 271.736 327.615 271.382 328.222C271.027 328.829 270.542 329.3 269.926 329.636C269.319 329.963 268.647 330.126 267.91 330.126ZM267.91 328.74C268.32 328.74 268.703 328.642 269.058 328.446C269.422 328.25 269.716 327.956 269.94 327.564C270.164 327.172 270.276 326.696 270.276 326.136C270.276 325.576 270.168 325.105 269.954 324.722C269.739 324.33 269.454 324.036 269.1 323.84C268.745 323.644 268.362 323.546 267.952 323.546C267.541 323.546 267.158 323.644 266.804 323.84C266.458 324.036 266.183 324.33 265.978 324.722C265.772 325.105 265.67 325.576 265.67 326.136C265.67 326.967 265.88 327.611 266.3 328.068C266.729 328.516 267.266 328.74 267.91 328.74ZM276.725 323.588H275.297V330H273.687V323.588H272.777V322.286H273.687V321.74C273.687 320.853 273.921 320.209 274.387 319.808C274.863 319.397 275.605 319.192 276.613 319.192V320.522C276.128 320.522 275.787 320.615 275.591 320.802C275.395 320.979 275.297 321.292 275.297 321.74V322.286H276.725V323.588ZM281.374 323.588H279.946V330H278.336V323.588H277.426V322.286H278.336V321.74C278.336 320.853 278.569 320.209 279.036 319.808C279.512 319.397 280.254 319.192 281.262 319.192V320.522C280.777 320.522 280.436 320.615 280.24 320.802C280.044 320.979 279.946 321.292 279.946 321.74V322.286H281.374V323.588ZM288.287 323.588V327.858C288.287 328.147 288.352 328.357 288.483 328.488C288.623 328.609 288.856 328.67 289.183 328.67H290.163V330H288.903C288.184 330 287.634 329.832 287.251 329.496C286.868 329.16 286.677 328.614 286.677 327.858V323.588H285.767V322.286H286.677V320.368H288.287V322.286H290.163V323.588H288.287ZM293.23 323.406C293.463 323.014 293.771 322.711 294.154 322.496C294.546 322.272 295.008 322.16 295.54 322.16V323.812H295.134C294.509 323.812 294.033 323.971 293.706 324.288C293.389 324.605 293.23 325.156 293.23 325.94V330H291.634V322.286H293.23V323.406ZM296.475 326.108C296.475 325.333 296.634 324.647 296.951 324.05C297.278 323.453 297.716 322.991 298.267 322.664C298.827 322.328 299.443 322.16 300.115 322.16C300.722 322.16 301.249 322.281 301.697 322.524C302.154 322.757 302.518 323.051 302.789 323.406V322.286H304.399V330H302.789V328.852C302.518 329.216 302.15 329.519 301.683 329.762C301.216 330.005 300.684 330.126 300.087 330.126C299.424 330.126 298.818 329.958 298.267 329.622C297.716 329.277 297.278 328.801 296.951 328.194C296.634 327.578 296.475 326.883 296.475 326.108ZM302.789 326.136C302.789 325.604 302.677 325.142 302.453 324.75C302.238 324.358 301.954 324.059 301.599 323.854C301.244 323.649 300.862 323.546 300.451 323.546C300.04 323.546 299.658 323.649 299.303 323.854C298.948 324.05 298.659 324.344 298.435 324.736C298.22 325.119 298.113 325.576 298.113 326.108C298.113 326.64 298.22 327.107 298.435 327.508C298.659 327.909 298.948 328.217 299.303 328.432C299.667 328.637 300.05 328.74 300.451 328.74C300.862 328.74 301.244 328.637 301.599 328.432C301.954 328.227 302.238 327.928 302.453 327.536C302.677 327.135 302.789 326.668 302.789 326.136ZM305.963 326.136C305.963 325.343 306.122 324.647 306.439 324.05C306.766 323.443 307.214 322.977 307.783 322.65C308.353 322.323 309.006 322.16 309.743 322.16C310.677 322.16 311.447 322.384 312.053 322.832C312.669 323.271 313.085 323.901 313.299 324.722H311.577C311.437 324.339 311.213 324.041 310.905 323.826C310.597 323.611 310.21 323.504 309.743 323.504C309.09 323.504 308.567 323.737 308.175 324.204C307.793 324.661 307.601 325.305 307.601 326.136C307.601 326.967 307.793 327.615 308.175 328.082C308.567 328.549 309.09 328.782 309.743 328.782C310.667 328.782 311.279 328.376 311.577 327.564H313.299C313.075 328.348 312.655 328.973 312.039 329.44C311.423 329.897 310.658 330.126 309.743 330.126C309.006 330.126 308.353 329.963 307.783 329.636C307.214 329.3 306.766 328.833 306.439 328.236C306.122 327.629 305.963 326.929 305.963 326.136ZM317.942 326.15L321.498 330H319.342L316.486 326.682V330H314.89V319.64H316.486V325.66L319.286 322.286H321.498L317.942 326.15ZM323.286 330.098C322.996 330.098 322.754 330 322.558 329.804C322.362 329.608 322.264 329.365 322.264 329.076C322.264 328.787 322.362 328.544 322.558 328.348C322.754 328.152 322.996 328.054 323.286 328.054C323.566 328.054 323.804 328.152 324 328.348C324.196 328.544 324.294 328.787 324.294 329.076C324.294 329.365 324.196 329.608 324 329.804C323.804 330 323.566 330.098 323.286 330.098Z" fill="#2E2E2E"/>
<path d="M61.6741 345.66L59.2021 354H57.6541L55.9021 347.688L54.0421 354L52.5061 354.012L50.1421 345.66H51.5941L53.3221 352.452L55.1941 345.66H56.7301L58.4701 352.416L60.2101 345.66H61.6741ZM68.8623 350.532C68.8623 350.78 68.8463 351.004 68.8143 351.204H63.7623C63.8023 351.732 63.9983 352.156 64.3503 352.476C64.7023 352.796 65.1343 352.956 65.6463 352.956C66.3823 352.956 66.9023 352.648 67.2063 352.032H68.6823C68.4823 352.64 68.1183 353.14 67.5903 353.532C67.0703 353.916 66.4223 354.108 65.6463 354.108C65.0143 354.108 64.4463 353.968 63.9423 353.688C63.4463 353.4 63.0543 353 62.7663 352.488C62.4863 351.968 62.3463 351.368 62.3463 350.688C62.3463 350.008 62.4823 349.412 62.7543 348.9C63.0343 348.38 63.4223 347.98 63.9183 347.7C64.4223 347.42 64.9983 347.28 65.6463 347.28C66.2703 347.28 66.8263 347.416 67.3143 347.688C67.8023 347.96 68.1823 348.344 68.4543 348.84C68.7263 349.328 68.8623 349.892 68.8623 350.532ZM67.4343 350.1C67.4263 349.596 67.2463 349.192 66.8943 348.888C66.5423 348.584 66.1063 348.432 65.5863 348.432C65.1143 348.432 64.7103 348.584 64.3743 348.888C64.0383 349.184 63.8383 349.588 63.7743 350.1H67.4343ZM72.8698 350.688C72.8698 350.008 73.0058 349.412 73.2778 348.9C73.5578 348.38 73.9418 347.98 74.4298 347.7C74.9178 347.42 75.4778 347.28 76.1098 347.28C76.9098 347.28 77.5698 347.472 78.0898 347.856C78.6178 348.232 78.9738 348.772 79.1578 349.476H77.6818C77.5618 349.148 77.3698 348.892 77.1058 348.708C76.8418 348.524 76.5098 348.432 76.1098 348.432C75.5498 348.432 75.1018 348.632 74.7658 349.032C74.4378 349.424 74.2738 349.976 74.2738 350.688C74.2738 351.4 74.4378 351.956 74.7658 352.356C75.1018 352.756 75.5498 352.956 76.1098 352.956C76.9018 352.956 77.4258 352.608 77.6818 351.912H79.1578C78.9658 352.584 78.6058 353.12 78.0778 353.52C77.5498 353.912 76.8938 354.108 76.1098 354.108C75.4778 354.108 74.9178 353.968 74.4298 353.688C73.9418 353.4 73.5578 353 73.2778 352.488C73.0058 351.968 72.8698 351.368 72.8698 350.688ZM83.3891 354.108C82.7651 354.108 82.2011 353.968 81.6971 353.688C81.1931 353.4 80.7971 353 80.5091 352.488C80.2211 351.968 80.0771 351.368 80.0771 350.688C80.0771 350.016 80.2251 349.42 80.5211 348.9C80.8171 348.38 81.2211 347.98 81.7331 347.7C82.2451 347.42 82.8171 347.28 83.4491 347.28C84.0811 347.28 84.6531 347.42 85.1651 347.7C85.6771 347.98 86.0811 348.38 86.3771 348.9C86.6731 349.42 86.8211 350.016 86.8211 350.688C86.8211 351.36 86.6691 351.956 86.3651 352.476C86.0611 352.996 85.6451 353.4 85.1171 353.688C84.5971 353.968 84.0211 354.108 83.3891 354.108ZM83.3891 352.92C83.7411 352.92 84.0691 352.836 84.3731 352.668C84.6851 352.5 84.9371 352.248 85.1291 351.912C85.3211 351.576 85.4171 351.168 85.4171 350.688C85.4171 350.208 85.3251 349.804 85.1411 349.476C84.9571 349.14 84.7131 348.888 84.4091 348.72C84.1051 348.552 83.7771 348.468 83.4251 348.468C83.0731 348.468 82.7451 348.552 82.4411 348.72C82.1451 348.888 81.9091 349.14 81.7331 349.476C81.5571 349.804 81.4691 350.208 81.4691 350.688C81.4691 351.4 81.6491 351.952 82.0091 352.344C82.3771 352.728 82.8371 352.92 83.3891 352.92ZM94.1614 347.388V354H92.7934V353.22C92.5774 353.492 92.2934 353.708 91.9414 353.868C91.5974 354.02 91.2294 354.096 90.8374 354.096C90.3174 354.096 89.8494 353.988 89.4334 353.772C89.0254 353.556 88.7014 353.236 88.4614 352.812C88.2294 352.388 88.1134 351.876 88.1134 351.276V347.388H89.4694V351.072C89.4694 351.664 89.6174 352.12 89.9134 352.44C90.2094 352.752 90.6134 352.908 91.1254 352.908C91.6374 352.908 92.0414 352.752 92.3374 352.44C92.6414 352.12 92.7934 351.664 92.7934 351.072V347.388H94.1614ZM97.3344 345.12V354H95.9664V345.12H97.3344ZM98.6745 350.664C98.6745 350 98.8105 349.412 99.0825 348.9C99.3625 348.388 99.7385 347.992 100.21 347.712C100.69 347.424 101.222 347.28 101.806 347.28C102.238 347.28 102.662 347.376 103.078 347.568C103.502 347.752 103.838 348 104.086 348.312V345.12H105.466V354H104.086V353.004C103.862 353.324 103.55 353.588 103.15 353.796C102.758 354.004 102.306 354.108 101.794 354.108C101.218 354.108 100.69 353.964 100.21 353.676C99.7385 353.38 99.3625 352.972 99.0825 352.452C98.8105 351.924 98.6745 351.328 98.6745 350.664ZM104.086 350.688C104.086 350.232 103.99 349.836 103.798 349.5C103.614 349.164 103.37 348.908 103.066 348.732C102.762 348.556 102.434 348.468 102.082 348.468C101.73 348.468 101.402 348.556 101.098 348.732C100.794 348.9 100.546 349.152 100.354 349.488C100.17 349.816 100.078 350.208 100.078 350.664C100.078 351.12 100.17 351.52 100.354 351.864C100.546 352.208 100.794 352.472 101.098 352.656C101.41 352.832 101.738 352.92 102.082 352.92C102.434 352.92 102.762 352.832 103.066 352.656C103.37 352.48 103.614 352.224 103.798 351.888C103.99 351.544 104.086 351.144 104.086 350.688ZM110.599 347.28C111.119 347.28 111.583 347.388 111.991 347.604C112.407 347.82 112.731 348.14 112.963 348.564C113.195 348.988 113.311 349.5 113.311 350.1V354H111.955V350.304C111.955 349.712 111.807 349.26 111.511 348.948C111.215 348.628 110.811 348.468 110.299 348.468C109.787 348.468 109.379 348.628 109.075 348.948C108.779 349.26 108.631 349.712 108.631 350.304V354H107.263V347.388H108.631V348.144C108.855 347.872 109.139 347.66 109.483 347.508C109.835 347.356 110.207 347.28 110.599 347.28ZM115.272 345.66H116.76L115.5 348.516H114.54L115.272 345.66ZM119.559 348.504V352.164C119.559 352.412 119.615 352.592 119.727 352.704C119.847 352.808 120.047 352.86 120.327 352.86H121.167V354H120.087C119.471 354 118.999 353.856 118.671 353.568C118.343 353.28 118.179 352.812 118.179 352.164V348.504H117.399V347.388H118.179V345.744H119.559V347.388H121.167V348.504H119.559ZM128.317 348.504H127.093V354H125.713V348.504H124.933V347.388H125.713V346.92C125.713 346.16 125.913 345.608 126.313 345.264C126.721 344.912 127.357 344.736 128.221 344.736V345.876C127.805 345.876 127.513 345.956 127.345 346.116C127.177 346.268 127.093 346.536 127.093 346.92V347.388H128.317V348.504ZM130.225 346.512C129.977 346.512 129.769 346.428 129.601 346.26C129.433 346.092 129.349 345.884 129.349 345.636C129.349 345.388 129.433 345.18 129.601 345.012C129.769 344.844 129.977 344.76 130.225 344.76C130.465 344.76 130.669 344.844 130.837 345.012C131.005 345.18 131.089 345.388 131.089 345.636C131.089 345.884 131.005 346.092 130.837 346.26C130.669 346.428 130.465 346.512 130.225 346.512ZM130.897 347.388V354H129.529V347.388H130.897ZM136.029 347.28C136.549 347.28 137.013 347.388 137.421 347.604C137.837 347.82 138.161 348.14 138.393 348.564C138.625 348.988 138.741 349.5 138.741 350.1V354H137.385V350.304C137.385 349.712 137.237 349.26 136.941 348.948C136.645 348.628 136.241 348.468 135.729 348.468C135.217 348.468 134.809 348.628 134.505 348.948C134.209 349.26 134.061 349.712 134.061 350.304V354H132.693V347.388H134.061V348.144C134.285 347.872 134.569 347.66 134.913 347.508C135.265 347.356 135.637 347.28 136.029 347.28ZM140.03 350.664C140.03 350 140.166 349.412 140.438 348.9C140.718 348.388 141.094 347.992 141.566 347.712C142.046 347.424 142.578 347.28 143.162 347.28C143.594 347.28 144.018 347.376 144.434 347.568C144.858 347.752 145.194 348 145.442 348.312V345.12H146.822V354H145.442V353.004C145.218 353.324 144.906 353.588 144.506 353.796C144.114 354.004 143.662 354.108 143.15 354.108C142.574 354.108 142.046 353.964 141.566 353.676C141.094 353.38 140.718 352.972 140.438 352.452C140.166 351.924 140.03 351.328 140.03 350.664ZM145.442 350.688C145.442 350.232 145.346 349.836 145.154 349.5C144.97 349.164 144.726 348.908 144.422 348.732C144.118 348.556 143.79 348.468 143.438 348.468C143.086 348.468 142.758 348.556 142.454 348.732C142.15 348.9 141.902 349.152 141.71 349.488C141.526 349.816 141.434 350.208 141.434 350.664C141.434 351.12 141.526 351.52 141.71 351.864C141.902 352.208 142.15 352.472 142.454 352.656C142.766 352.832 143.094 352.92 143.438 352.92C143.79 352.92 144.118 352.832 144.422 352.656C144.726 352.48 144.97 352.224 145.154 351.888C145.346 351.544 145.442 351.144 145.442 350.688ZM153.332 348.504V352.164C153.332 352.412 153.388 352.592 153.5 352.704C153.62 352.808 153.82 352.86 154.1 352.86H154.94V354H153.86C153.244 354 152.772 353.856 152.444 353.568C152.116 353.28 151.952 352.812 151.952 352.164V348.504H151.172V347.388H151.952V345.744H153.332V347.388H154.94V348.504H153.332ZM159.621 347.28C160.125 347.28 160.573 347.388 160.965 347.604C161.365 347.82 161.677 348.14 161.901 348.564C162.133 348.988 162.249 349.5 162.249 350.1V354H160.893V350.304C160.893 349.712 160.745 349.26 160.449 348.948C160.153 348.628 159.749 348.468 159.237 348.468C158.725 348.468 158.317 348.628 158.013 348.948C157.717 349.26 157.569 349.712 157.569 350.304V354H156.201V345.12H157.569V348.156C157.801 347.876 158.093 347.66 158.445 347.508C158.805 347.356 159.197 347.28 159.621 347.28ZM170.054 350.532C170.054 350.78 170.038 351.004 170.006 351.204H164.954C164.994 351.732 165.19 352.156 165.542 352.476C165.894 352.796 166.326 352.956 166.838 352.956C167.574 352.956 168.094 352.648 168.398 352.032H169.874C169.674 352.64 169.31 353.14 168.782 353.532C168.262 353.916 167.614 354.108 166.838 354.108C166.206 354.108 165.638 353.968 165.134 353.688C164.638 353.4 164.246 353 163.958 352.488C163.678 351.968 163.538 351.368 163.538 350.688C163.538 350.008 163.674 349.412 163.946 348.9C164.226 348.38 164.614 347.98 165.11 347.7C165.614 347.42 166.19 347.28 166.838 347.28C167.462 347.28 168.018 347.416 168.506 347.688C168.994 347.96 169.374 348.344 169.646 348.84C169.918 349.328 170.054 349.892 170.054 350.532ZM168.626 350.1C168.618 349.596 168.438 349.192 168.086 348.888C167.734 348.584 167.298 348.432 166.778 348.432C166.306 348.432 165.902 348.584 165.566 348.888C165.23 349.184 165.03 349.588 164.966 350.1H168.626ZM175.885 348.36C176.117 348.056 176.433 347.8 176.833 347.592C177.233 347.384 177.685 347.28 178.189 347.28C178.765 347.28 179.289 347.424 179.761 347.712C180.241 347.992 180.617 348.388 180.889 348.9C181.161 349.412 181.297 350 181.297 350.664C181.297 351.328 181.161 351.924 180.889 352.452C180.617 352.972 180.241 353.38 179.761 353.676C179.289 353.964 178.765 354.108 178.189 354.108C177.685 354.108 177.237 354.008 176.845 353.808C176.453 353.6 176.133 353.344 175.885 353.04V357.144H174.517V347.388H175.885V348.36ZM179.905 350.664C179.905 350.208 179.809 349.816 179.617 349.488C179.433 349.152 179.185 348.9 178.873 348.732C178.569 348.556 178.241 348.468 177.889 348.468C177.545 348.468 177.217 348.556 176.905 348.732C176.601 348.908 176.353 349.164 176.161 349.5C175.977 349.836 175.885 350.232 175.885 350.688C175.885 351.144 175.977 351.544 176.161 351.888C176.353 352.224 176.601 352.48 176.905 352.656C177.217 352.832 177.545 352.92 177.889 352.92C178.241 352.92 178.569 352.832 178.873 352.656C179.185 352.472 179.433 352.208 179.617 351.864C179.809 351.52 179.905 351.12 179.905 350.664ZM182.194 350.664C182.194 350 182.33 349.412 182.602 348.9C182.882 348.388 183.258 347.992 183.73 347.712C184.21 347.424 184.738 347.28 185.314 347.28C185.834 347.28 186.286 347.384 186.67 347.592C187.062 347.792 187.374 348.044 187.606 348.348V347.388H188.986V354H187.606V353.016C187.374 353.328 187.058 353.588 186.658 353.796C186.258 354.004 185.802 354.108 185.29 354.108C184.722 354.108 184.202 353.964 183.73 353.676C183.258 353.38 182.882 352.972 182.602 352.452C182.33 351.924 182.194 351.328 182.194 350.664ZM187.606 350.688C187.606 350.232 187.51 349.836 187.318 349.5C187.134 349.164 186.89 348.908 186.586 348.732C186.282 348.556 185.954 348.468 185.602 348.468C185.25 348.468 184.922 348.556 184.618 348.732C184.314 348.9 184.066 349.152 183.874 349.488C183.69 349.816 183.598 350.208 183.598 350.664C183.598 351.12 183.69 351.52 183.874 351.864C184.066 352.208 184.314 352.472 184.618 352.656C184.93 352.832 185.258 352.92 185.602 352.92C185.954 352.92 186.282 352.832 186.586 352.656C186.89 352.48 187.134 352.224 187.318 351.888C187.51 351.544 187.606 351.144 187.606 350.688ZM193.447 347.28C193.959 347.28 194.411 347.384 194.803 347.592C195.203 347.792 195.515 348.044 195.739 348.348V347.388H197.119V354.108C197.119 354.716 196.991 355.256 196.735 355.728C196.479 356.208 196.107 356.584 195.619 356.856C195.139 357.128 194.563 357.264 193.891 357.264C192.995 357.264 192.251 357.052 191.659 356.628C191.067 356.212 190.731 355.644 190.651 354.924H192.007C192.111 355.268 192.331 355.544 192.667 355.752C193.011 355.968 193.419 356.076 193.891 356.076C194.443 356.076 194.887 355.908 195.223 355.572C195.567 355.236 195.739 354.748 195.739 354.108V353.004C195.507 353.316 195.191 353.58 194.791 353.796C194.399 354.004 193.951 354.108 193.447 354.108C192.871 354.108 192.343 353.964 191.863 353.676C191.391 353.38 191.015 352.972 190.735 352.452C190.463 351.924 190.327 351.328 190.327 350.664C190.327 350 190.463 349.412 190.735 348.9C191.015 348.388 191.391 347.992 191.863 347.712C192.343 347.424 192.871 347.28 193.447 347.28ZM195.739 350.688C195.739 350.232 195.643 349.836 195.451 349.5C195.267 349.164 195.023 348.908 194.719 348.732C194.415 348.556 194.087 348.468 193.735 348.468C193.383 348.468 193.055 348.556 192.751 348.732C192.447 348.9 192.199 349.152 192.007 349.488C191.823 349.816 191.731 350.208 191.731 350.664C191.731 351.12 191.823 351.52 192.007 351.864C192.199 352.208 192.447 352.472 192.751 352.656C193.063 352.832 193.391 352.92 193.735 352.92C194.087 352.92 194.415 352.832 194.719 352.656C195.023 352.48 195.267 352.224 195.451 351.888C195.643 351.544 195.739 351.144 195.739 350.688ZM204.976 350.532C204.976 350.78 204.96 351.004 204.928 351.204H199.876C199.916 351.732 200.112 352.156 200.464 352.476C200.816 352.796 201.248 352.956 201.76 352.956C202.496 352.956 203.016 352.648 203.32 352.032H204.796C204.596 352.64 204.232 353.14 203.704 353.532C203.184 353.916 202.536 354.108 201.76 354.108C201.128 354.108 200.56 353.968 200.056 353.688C199.56 353.4 199.168 353 198.88 352.488C198.6 351.968 198.46 351.368 198.46 350.688C198.46 350.008 198.596 349.412 198.868 348.9C199.148 348.38 199.536 347.98 200.032 347.7C200.536 347.42 201.112 347.28 201.76 347.28C202.384 347.28 202.94 347.416 203.428 347.688C203.916 347.96 204.296 348.344 204.568 348.84C204.84 349.328 204.976 349.892 204.976 350.532ZM203.548 350.1C203.54 349.596 203.36 349.192 203.008 348.888C202.656 348.584 202.22 348.432 201.7 348.432C201.228 348.432 200.824 348.584 200.488 348.888C200.152 349.184 199.952 349.588 199.888 350.1H203.548ZM215.391 347.388L211.335 357.108H209.919L211.263 353.892L208.659 347.388H210.183L212.043 352.428L213.975 347.388H215.391ZM219.291 354.108C218.667 354.108 218.103 353.968 217.599 353.688C217.095 353.4 216.699 353 216.411 352.488C216.123 351.968 215.979 351.368 215.979 350.688C215.979 350.016 216.127 349.42 216.423 348.9C216.719 348.38 217.123 347.98 217.635 347.7C218.147 347.42 218.719 347.28 219.351 347.28C219.983 347.28 220.555 347.42 221.067 347.7C221.579 347.98 221.983 348.38 222.279 348.9C222.575 349.42 222.723 350.016 222.723 350.688C222.723 351.36 222.571 351.956 222.267 352.476C221.963 352.996 221.547 353.4 221.019 353.688C220.499 353.968 219.923 354.108 219.291 354.108ZM219.291 352.92C219.643 352.92 219.971 352.836 220.275 352.668C220.587 352.5 220.839 352.248 221.031 351.912C221.223 351.576 221.319 351.168 221.319 350.688C221.319 350.208 221.227 349.804 221.043 349.476C220.859 349.14 220.615 348.888 220.311 348.72C220.007 348.552 219.679 348.468 219.327 348.468C218.975 348.468 218.647 348.552 218.343 348.72C218.047 348.888 217.811 349.14 217.635 349.476C217.459 349.804 217.371 350.208 217.371 350.688C217.371 351.4 217.551 351.952 217.911 352.344C218.279 352.728 218.739 352.92 219.291 352.92ZM230.064 347.388V354H228.696V353.22C228.48 353.492 228.196 353.708 227.844 353.868C227.5 354.02 227.132 354.096 226.74 354.096C226.22 354.096 225.752 353.988 225.336 353.772C224.928 353.556 224.604 353.236 224.364 352.812C224.132 352.388 224.016 351.876 224.016 351.276V347.388H225.372V351.072C225.372 351.664 225.52 352.12 225.816 352.44C226.112 352.752 226.516 352.908 227.028 352.908C227.54 352.908 227.944 352.752 228.24 352.44C228.544 352.12 228.696 351.664 228.696 351.072V347.388H230.064ZM243.866 347.388L241.814 354H240.374L239.042 349.116L237.71 354H236.27L234.206 347.388H235.598L236.978 352.704L238.382 347.388H239.81L241.154 352.68L242.522 347.388H243.866ZM250.948 350.532C250.948 350.78 250.932 351.004 250.9 351.204H245.848C245.888 351.732 246.084 352.156 246.436 352.476C246.788 352.796 247.22 352.956 247.732 352.956C248.468 352.956 248.988 352.648 249.292 352.032H250.768C250.568 352.64 250.204 353.14 249.676 353.532C249.156 353.916 248.508 354.108 247.732 354.108C247.1 354.108 246.532 353.968 246.028 353.688C245.532 353.4 245.14 353 244.852 352.488C244.572 351.968 244.432 351.368 244.432 350.688C244.432 350.008 244.568 349.412 244.84 348.9C245.12 348.38 245.508 347.98 246.004 347.7C246.508 347.42 247.084 347.28 247.732 347.28C248.356 347.28 248.912 347.416 249.4 347.688C249.888 347.96 250.268 348.344 250.54 348.84C250.812 349.328 250.948 349.892 250.948 350.532ZM249.52 350.1C249.512 349.596 249.332 349.192 248.98 348.888C248.628 348.584 248.192 348.432 247.672 348.432C247.2 348.432 246.796 348.584 246.46 348.888C246.124 349.184 245.924 349.588 245.86 350.1H249.52ZM253.663 348.348C253.863 348.012 254.127 347.752 254.455 347.568C254.791 347.376 255.187 347.28 255.643 347.28V348.696H255.295C254.759 348.696 254.351 348.832 254.071 349.104C253.799 349.376 253.663 349.848 253.663 350.52V354H252.295V347.388H253.663V348.348ZM262.96 350.532C262.96 350.78 262.944 351.004 262.912 351.204H257.86C257.9 351.732 258.096 352.156 258.448 352.476C258.8 352.796 259.232 352.956 259.744 352.956C260.48 352.956 261 352.648 261.304 352.032H262.78C262.58 352.64 262.216 353.14 261.688 353.532C261.168 353.916 260.52 354.108 259.744 354.108C259.112 354.108 258.544 353.968 258.04 353.688C257.544 353.4 257.152 353 256.864 352.488C256.584 351.968 256.444 351.368 256.444 350.688C256.444 350.008 256.58 349.412 256.852 348.9C257.132 348.38 257.52 347.98 258.016 347.7C258.52 347.42 259.096 347.28 259.744 347.28C260.368 347.28 260.924 347.416 261.412 347.688C261.9 347.96 262.28 348.344 262.552 348.84C262.824 349.328 262.96 349.892 262.96 350.532ZM261.532 350.1C261.524 349.596 261.344 349.192 260.992 348.888C260.64 348.584 260.204 348.432 259.684 348.432C259.212 348.432 258.808 348.584 258.472 348.888C258.136 349.184 257.936 349.588 257.872 350.1H261.532ZM268.791 345.12V354H267.423V345.12H268.791ZM273.456 354.108C272.832 354.108 272.268 353.968 271.764 353.688C271.26 353.4 270.864 353 270.576 352.488C270.288 351.968 270.144 351.368 270.144 350.688C270.144 350.016 270.292 349.42 270.588 348.9C270.884 348.38 271.288 347.98 271.8 347.7C272.312 347.42 272.884 347.28 273.516 347.28C274.148 347.28 274.72 347.42 275.232 347.7C275.744 347.98 276.148 348.38 276.444 348.9C276.74 349.42 276.888 350.016 276.888 350.688C276.888 351.36 276.736 351.956 276.432 352.476C276.128 352.996 275.712 353.4 275.184 353.688C274.664 353.968 274.088 354.108 273.456 354.108ZM273.456 352.92C273.808 352.92 274.136 352.836 274.44 352.668C274.752 352.5 275.004 352.248 275.196 351.912C275.388 351.576 275.484 351.168 275.484 350.688C275.484 350.208 275.392 349.804 275.208 349.476C275.024 349.14 274.78 348.888 274.476 348.72C274.172 348.552 273.844 348.468 273.492 348.468C273.14 348.468 272.812 348.552 272.508 348.72C272.212 348.888 271.976 349.14 271.8 349.476C271.624 349.804 271.536 350.208 271.536 350.688C271.536 351.4 271.716 351.952 272.076 352.344C272.444 352.728 272.904 352.92 273.456 352.92ZM281.108 354.108C280.484 354.108 279.92 353.968 279.416 353.688C278.912 353.4 278.516 353 278.228 352.488C277.94 351.968 277.796 351.368 277.796 350.688C277.796 350.016 277.944 349.42 278.24 348.9C278.536 348.38 278.94 347.98 279.452 347.7C279.964 347.42 280.536 347.28 281.168 347.28C281.8 347.28 282.372 347.42 282.884 347.7C283.396 347.98 283.8 348.38 284.096 348.9C284.392 349.42 284.54 350.016 284.54 350.688C284.54 351.36 284.388 351.956 284.084 352.476C283.78 352.996 283.364 353.4 282.836 353.688C282.316 353.968 281.74 354.108 281.108 354.108ZM281.108 352.92C281.46 352.92 281.788 352.836 282.092 352.668C282.404 352.5 282.656 352.248 282.848 351.912C283.04 351.576 283.136 351.168 283.136 350.688C283.136 350.208 283.044 349.804 282.86 349.476C282.676 349.14 282.432 348.888 282.128 348.72C281.824 348.552 281.496 348.468 281.144 348.468C280.792 348.468 280.464 348.552 280.16 348.72C279.864 348.888 279.628 349.14 279.452 349.476C279.276 349.804 279.188 350.208 279.188 350.688C279.188 351.4 279.368 351.952 279.728 352.344C280.096 352.728 280.556 352.92 281.108 352.92ZM288.508 350.7L291.556 354H289.708L287.26 351.156V354H285.892V345.12H287.26V350.28L289.66 347.388H291.556L288.508 350.7ZM293.233 346.512C292.985 346.512 292.777 346.428 292.609 346.26C292.441 346.092 292.357 345.884 292.357 345.636C292.357 345.388 292.441 345.18 292.609 345.012C292.777 344.844 292.985 344.76 293.233 344.76C293.473 344.76 293.677 344.844 293.845 345.012C294.013 345.18 294.097 345.388 294.097 345.636C294.097 345.884 294.013 346.092 293.845 346.26C293.677 346.428 293.473 346.512 293.233 346.512ZM293.905 347.388V354H292.537V347.388H293.905ZM299.037 347.28C299.557 347.28 300.021 347.388 300.429 347.604C300.845 347.82 301.169 348.14 301.401 348.564C301.633 348.988 301.749 349.5 301.749 350.1V354H300.393V350.304C300.393 349.712 300.245 349.26 299.949 348.948C299.653 348.628 299.249 348.468 298.737 348.468C298.225 348.468 297.817 348.628 297.513 348.948C297.217 349.26 297.069 349.712 297.069 350.304V354H295.701V347.388H297.069V348.144C297.293 347.872 297.577 347.66 297.921 347.508C298.273 347.356 298.645 347.28 299.037 347.28ZM306.158 347.28C306.67 347.28 307.122 347.384 307.514 347.592C307.914 347.792 308.226 348.044 308.45 348.348V347.388H309.83V354.108C309.83 354.716 309.702 355.256 309.446 355.728C309.19 356.208 308.818 356.584 308.33 356.856C307.85 357.128 307.274 357.264 306.602 357.264C305.706 357.264 304.962 357.052 304.37 356.628C303.778 356.212 303.442 355.644 303.362 354.924H304.718C304.822 355.268 305.042 355.544 305.378 355.752C305.722 355.968 306.13 356.076 306.602 356.076C307.154 356.076 307.598 355.908 307.934 355.572C308.278 355.236 308.45 354.748 308.45 354.108V353.004C308.218 353.316 307.902 353.58 307.502 353.796C307.11 354.004 306.662 354.108 306.158 354.108C305.582 354.108 305.054 353.964 304.574 353.676C304.102 353.38 303.726 352.972 303.446 352.452C303.174 351.924 303.038 351.328 303.038 350.664C303.038 350 303.174 349.412 303.446 348.9C303.726 348.388 304.102 347.992 304.574 347.712C305.054 347.424 305.582 347.28 306.158 347.28ZM308.45 350.688C308.45 350.232 308.354 349.836 308.162 349.5C307.978 349.164 307.734 348.908 307.43 348.732C307.126 348.556 306.798 348.468 306.446 348.468C306.094 348.468 305.766 348.556 305.462 348.732C305.158 348.9 304.91 349.152 304.718 349.488C304.534 349.816 304.442 350.208 304.442 350.664C304.442 351.12 304.534 351.52 304.718 351.864C304.91 352.208 305.158 352.472 305.462 352.656C305.774 352.832 306.102 352.92 306.446 352.92C306.798 352.92 307.126 352.832 307.43 352.656C307.734 352.48 307.978 352.224 308.162 351.888C308.354 351.544 308.45 351.144 308.45 350.688ZM317.516 348.504H316.292V354H314.912V348.504H314.132V347.388H314.912V346.92C314.912 346.16 315.112 345.608 315.512 345.264C315.92 344.912 316.556 344.736 317.42 344.736V345.876C317.004 345.876 316.712 345.956 316.544 346.116C316.376 346.268 316.292 346.536 316.292 346.92V347.388H317.516V348.504ZM321.596 354.108C320.972 354.108 320.408 353.968 319.904 353.688C319.4 353.4 319.004 353 318.716 352.488C318.428 351.968 318.284 351.368 318.284 350.688C318.284 350.016 318.432 349.42 318.728 348.9C319.024 348.38 319.428 347.98 319.94 347.7C320.452 347.42 321.024 347.28 321.656 347.28C322.288 347.28 322.86 347.42 323.372 347.7C323.884 347.98 324.288 348.38 324.584 348.9C324.88 349.42 325.028 350.016 325.028 350.688C325.028 351.36 324.876 351.956 324.572 352.476C324.268 352.996 323.852 353.4 323.324 353.688C322.804 353.968 322.228 354.108 321.596 354.108ZM321.596 352.92C321.948 352.92 322.276 352.836 322.58 352.668C322.892 352.5 323.144 352.248 323.336 351.912C323.528 351.576 323.624 351.168 323.624 350.688C323.624 350.208 323.532 349.804 323.348 349.476C323.164 349.14 322.92 348.888 322.616 348.72C322.312 348.552 321.984 348.468 321.632 348.468C321.28 348.468 320.952 348.552 320.648 348.72C320.352 348.888 320.116 349.14 319.94 349.476C319.764 349.804 319.676 350.208 319.676 350.688C319.676 351.4 319.856 351.952 320.216 352.344C320.584 352.728 321.044 352.92 321.596 352.92ZM327.748 348.348C327.948 348.012 328.212 347.752 328.54 347.568C328.876 347.376 329.272 347.28 329.728 347.28V348.696H329.38C328.844 348.696 328.436 348.832 328.156 349.104C327.884 349.376 327.748 349.848 327.748 350.52V354H326.38V347.388H327.748V348.348ZM60.9554 364.512C60.7074 364.512 60.4994 364.428 60.3314 364.26C60.1634 364.092 60.0794 363.884 60.0794 363.636C60.0794 363.388 60.1634 363.18 60.3314 363.012C60.4994 362.844 60.7074 362.76 60.9554 362.76C61.1954 362.76 61.3994 362.844 61.5674 363.012C61.7354 363.18 61.8194 363.388 61.8194 363.636C61.8194 363.884 61.7354 364.092 61.5674 364.26C61.3994 364.428 61.1954 364.512 60.9554 364.512ZM61.6274 365.388V372H60.2594V365.388H61.6274ZM65.0194 366.504V370.164C65.0194 370.412 65.0754 370.592 65.1874 370.704C65.3074 370.808 65.5074 370.86 65.7874 370.86H66.6274V372H65.5474C64.9314 372 64.4594 371.856 64.1314 371.568C63.8034 371.28 63.6394 370.812 63.6394 370.164V366.504H62.8594V365.388H63.6394V363.744H65.0194V365.388H66.6274V366.504H65.0194ZM79.0095 365.28C79.5295 365.28 79.9935 365.388 80.4015 365.604C80.8175 365.82 81.1415 366.14 81.3735 366.564C81.6135 366.988 81.7335 367.5 81.7335 368.1V372H80.3775V368.304C80.3775 367.712 80.2295 367.26 79.9335 366.948C79.6375 366.628 79.2335 366.468 78.7215 366.468C78.2095 366.468 77.8015 366.628 77.4975 366.948C77.2015 367.26 77.0535 367.712 77.0535 368.304V372H75.6975V368.304C75.6975 367.712 75.5495 367.26 75.2535 366.948C74.9575 366.628 74.5535 366.468 74.0415 366.468C73.5295 366.468 73.1215 366.628 72.8175 366.948C72.5215 367.26 72.3735 367.712 72.3735 368.304V372H71.0055V365.388H72.3735V366.144C72.5975 365.872 72.8815 365.66 73.2255 365.508C73.5695 365.356 73.9375 365.28 74.3295 365.28C74.8575 365.28 75.3295 365.392 75.7455 365.616C76.1615 365.84 76.4815 366.164 76.7055 366.588C76.9055 366.188 77.2175 365.872 77.6415 365.64C78.0655 365.4 78.5215 365.28 79.0095 365.28ZM84.1702 364.512C83.9222 364.512 83.7142 364.428 83.5462 364.26C83.3782 364.092 83.2942 363.884 83.2942 363.636C83.2942 363.388 83.3782 363.18 83.5462 363.012C83.7142 362.844 83.9222 362.76 84.1702 362.76C84.4102 362.76 84.6142 362.844 84.7822 363.012C84.9502 363.18 85.0342 363.388 85.0342 363.636C85.0342 363.884 84.9502 364.092 84.7822 364.26C84.6142 364.428 84.4102 364.512 84.1702 364.512ZM84.8422 365.388V372H83.4742V365.388H84.8422ZM89.3023 365.28C89.8143 365.28 90.2663 365.384 90.6583 365.592C91.0583 365.792 91.3703 366.044 91.5943 366.348V365.388H92.9743V372.108C92.9743 372.716 92.8463 373.256 92.5903 373.728C92.3343 374.208 91.9623 374.584 91.4743 374.856C90.9943 375.128 90.4183 375.264 89.7463 375.264C88.8503 375.264 88.1063 375.052 87.5143 374.628C86.9223 374.212 86.5863 373.644 86.5063 372.924H87.8623C87.9663 373.268 88.1863 373.544 88.5223 373.752C88.8663 373.968 89.2743 374.076 89.7463 374.076C90.2983 374.076 90.7423 373.908 91.0783 373.572C91.4223 373.236 91.5943 372.748 91.5943 372.108V371.004C91.3623 371.316 91.0463 371.58 90.6463 371.796C90.2543 372.004 89.8063 372.108 89.3023 372.108C88.7263 372.108 88.1983 371.964 87.7183 371.676C87.2463 371.38 86.8703 370.972 86.5903 370.452C86.3183 369.924 86.1823 369.328 86.1823 368.664C86.1823 368 86.3183 367.412 86.5903 366.9C86.8703 366.388 87.2463 365.992 87.7183 365.712C88.1983 365.424 88.7263 365.28 89.3023 365.28ZM91.5943 368.688C91.5943 368.232 91.4983 367.836 91.3063 367.5C91.1223 367.164 90.8783 366.908 90.5743 366.732C90.2703 366.556 89.9423 366.468 89.5903 366.468C89.2383 366.468 88.9103 366.556 88.6063 366.732C88.3023 366.9 88.0543 367.152 87.8623 367.488C87.6783 367.816 87.5863 368.208 87.5863 368.664C87.5863 369.12 87.6783 369.52 87.8623 369.864C88.0543 370.208 88.3023 370.472 88.6063 370.656C88.9183 370.832 89.2463 370.92 89.5903 370.92C89.9423 370.92 90.2703 370.832 90.5743 370.656C90.8783 370.48 91.1223 370.224 91.3063 369.888C91.4983 369.544 91.5943 369.144 91.5943 368.688ZM98.1911 365.28C98.6951 365.28 99.1431 365.388 99.5351 365.604C99.9351 365.82 100.247 366.14 100.471 366.564C100.703 366.988 100.819 367.5 100.819 368.1V372H99.4631V368.304C99.4631 367.712 99.3151 367.26 99.0191 366.948C98.7231 366.628 98.3191 366.468 97.8071 366.468C97.2951 366.468 96.8871 366.628 96.5831 366.948C96.2871 367.26 96.1391 367.712 96.1391 368.304V372H94.7711V363.12H96.1391V366.156C96.3711 365.876 96.6631 365.66 97.0151 365.508C97.3751 365.356 97.7671 365.28 98.1911 365.28ZM104.16 366.504V370.164C104.16 370.412 104.216 370.592 104.328 370.704C104.448 370.808 104.648 370.86 104.928 370.86H105.768V372H104.688C104.072 372 103.6 371.856 103.272 371.568C102.944 371.28 102.78 370.812 102.78 370.164V366.504H102V365.388H102.78V363.744H104.16V365.388H105.768V366.504H104.16ZM113.566 365.28C114.07 365.28 114.518 365.388 114.91 365.604C115.31 365.82 115.622 366.14 115.846 366.564C116.078 366.988 116.194 367.5 116.194 368.1V372H114.838V368.304C114.838 367.712 114.69 367.26 114.394 366.948C114.098 366.628 113.694 366.468 113.182 366.468C112.67 366.468 112.262 366.628 111.958 366.948C111.662 367.26 111.514 367.712 111.514 368.304V372H110.146V363.12H111.514V366.156C111.746 365.876 112.038 365.66 112.39 365.508C112.75 365.356 113.142 365.28 113.566 365.28ZM117.483 368.664C117.483 368 117.619 367.412 117.891 366.9C118.171 366.388 118.547 365.992 119.019 365.712C119.499 365.424 120.027 365.28 120.603 365.28C121.123 365.28 121.575 365.384 121.959 365.592C122.351 365.792 122.663 366.044 122.895 366.348V365.388H124.275V372H122.895V371.016C122.663 371.328 122.347 371.588 121.947 371.796C121.547 372.004 121.091 372.108 120.579 372.108C120.011 372.108 119.491 371.964 119.019 371.676C118.547 371.38 118.171 370.972 117.891 370.452C117.619 369.924 117.483 369.328 117.483 368.664ZM122.895 368.688C122.895 368.232 122.799 367.836 122.607 367.5C122.423 367.164 122.179 366.908 121.875 366.732C121.571 366.556 121.243 366.468 120.891 366.468C120.539 366.468 120.211 366.556 119.907 366.732C119.603 366.9 119.355 367.152 119.163 367.488C118.979 367.816 118.887 368.208 118.887 368.664C118.887 369.12 118.979 369.52 119.163 369.864C119.355 370.208 119.603 370.472 119.907 370.656C120.219 370.832 120.547 370.92 120.891 370.92C121.243 370.92 121.571 370.832 121.875 370.656C122.179 370.48 122.423 370.224 122.607 369.888C122.799 369.544 122.895 369.144 122.895 368.688ZM128.628 370.776L130.5 365.388H131.952L129.432 372H127.8L125.292 365.388H126.756L128.628 370.776ZM139.046 368.532C139.046 368.78 139.03 369.004 138.998 369.204H133.946C133.986 369.732 134.182 370.156 134.534 370.476C134.886 370.796 135.318 370.956 135.83 370.956C136.566 370.956 137.086 370.648 137.39 370.032H138.866C138.666 370.64 138.302 371.14 137.774 371.532C137.254 371.916 136.606 372.108 135.83 372.108C135.198 372.108 134.63 371.968 134.126 371.688C133.63 371.4 133.238 371 132.95 370.488C132.67 369.968 132.53 369.368 132.53 368.688C132.53 368.008 132.666 367.412 132.938 366.9C133.218 366.38 133.606 365.98 134.102 365.7C134.606 365.42 135.182 365.28 135.83 365.28C136.454 365.28 137.01 365.416 137.498 365.688C137.986 365.96 138.366 366.344 138.638 366.84C138.91 367.328 139.046 367.892 139.046 368.532ZM137.618 368.1C137.61 367.596 137.43 367.192 137.078 366.888C136.726 366.584 136.29 366.432 135.77 366.432C135.298 366.432 134.894 366.584 134.558 366.888C134.222 367.184 134.022 367.588 133.958 368.1H137.618ZM144.877 366.372C145.109 366.052 145.425 365.792 145.825 365.592C146.233 365.384 146.685 365.28 147.181 365.28C147.765 365.28 148.293 365.42 148.765 365.7C149.237 365.98 149.609 366.38 149.881 366.9C150.153 367.412 150.289 368 150.289 368.664C150.289 369.328 150.153 369.924 149.881 370.452C149.609 370.972 149.233 371.38 148.753 371.676C148.281 371.964 147.757 372.108 147.181 372.108C146.669 372.108 146.213 372.008 145.813 371.808C145.421 371.608 145.109 371.352 144.877 371.04V372H143.509V363.12H144.877V366.372ZM148.897 368.664C148.897 368.208 148.801 367.816 148.609 367.488C148.425 367.152 148.177 366.9 147.865 366.732C147.561 366.556 147.233 366.468 146.881 366.468C146.537 366.468 146.209 366.556 145.897 366.732C145.593 366.908 145.345 367.164 145.153 367.5C144.969 367.836 144.877 368.232 144.877 368.688C144.877 369.144 144.969 369.544 145.153 369.888C145.345 370.224 145.593 370.48 145.897 370.656C146.209 370.832 146.537 370.92 146.881 370.92C147.233 370.92 147.561 370.832 147.865 370.656C148.177 370.472 148.425 370.208 148.609 369.864C148.801 369.52 148.897 369.12 148.897 368.664ZM157.702 368.532C157.702 368.78 157.686 369.004 157.654 369.204H152.602C152.642 369.732 152.838 370.156 153.19 370.476C153.542 370.796 153.974 370.956 154.486 370.956C155.222 370.956 155.742 370.648 156.046 370.032H157.522C157.322 370.64 156.958 371.14 156.43 371.532C155.91 371.916 155.262 372.108 154.486 372.108C153.854 372.108 153.286 371.968 152.782 371.688C152.286 371.4 151.894 371 151.606 370.488C151.326 369.968 151.186 369.368 151.186 368.688C151.186 368.008 151.322 367.412 151.594 366.9C151.874 366.38 152.262 365.98 152.758 365.7C153.262 365.42 153.838 365.28 154.486 365.28C155.11 365.28 155.666 365.416 156.154 365.688C156.642 365.96 157.022 366.344 157.294 366.84C157.566 367.328 157.702 367.892 157.702 368.532ZM156.274 368.1C156.266 367.596 156.086 367.192 155.734 366.888C155.382 366.584 154.946 366.432 154.426 366.432C153.954 366.432 153.55 366.584 153.214 366.888C152.878 367.184 152.678 367.588 152.614 368.1H156.274ZM165.108 368.532C165.108 368.78 165.092 369.004 165.06 369.204H160.008C160.048 369.732 160.244 370.156 160.596 370.476C160.948 370.796 161.38 370.956 161.892 370.956C162.628 370.956 163.148 370.648 163.452 370.032H164.928C164.728 370.64 164.364 371.14 163.836 371.532C163.316 371.916 162.668 372.108 161.892 372.108C161.26 372.108 160.692 371.968 160.188 371.688C159.692 371.4 159.3 371 159.012 370.488C158.732 369.968 158.592 369.368 158.592 368.688C158.592 368.008 158.728 367.412 159 366.9C159.28 366.38 159.668 365.98 160.164 365.7C160.668 365.42 161.244 365.28 161.892 365.28C162.516 365.28 163.072 365.416 163.56 365.688C164.048 365.96 164.428 366.344 164.7 366.84C164.972 367.328 165.108 367.892 165.108 368.532ZM163.68 368.1C163.672 367.596 163.492 367.192 163.14 366.888C162.788 366.584 162.352 366.432 161.832 366.432C161.36 366.432 160.956 366.584 160.62 366.888C160.284 367.184 160.084 367.588 160.02 368.1H163.68ZM169.791 365.28C170.311 365.28 170.775 365.388 171.183 365.604C171.599 365.82 171.923 366.14 172.155 366.564C172.387 366.988 172.503 367.5 172.503 368.1V372H171.147V368.304C171.147 367.712 170.999 367.26 170.703 366.948C170.407 366.628 170.003 366.468 169.491 366.468C168.979 366.468 168.571 366.628 168.267 366.948C167.971 367.26 167.823 367.712 167.823 368.304V372H166.455V365.388H167.823V366.144C168.047 365.872 168.331 365.66 168.675 365.508C169.027 365.356 169.399 365.28 169.791 365.28ZM185.369 365.28C185.889 365.28 186.353 365.388 186.761 365.604C187.177 365.82 187.501 366.14 187.733 366.564C187.973 366.988 188.093 367.5 188.093 368.1V372H186.737V368.304C186.737 367.712 186.589 367.26 186.293 366.948C185.997 366.628 185.593 366.468 185.081 366.468C184.569 366.468 184.161 366.628 183.857 366.948C183.561 367.26 183.413 367.712 183.413 368.304V372H182.057V368.304C182.057 367.712 181.909 367.26 181.613 366.948C181.317 366.628 180.913 366.468 180.401 366.468C179.889 366.468 179.481 366.628 179.177 366.948C178.881 367.26 178.733 367.712 178.733 368.304V372H177.365V365.388H178.733V366.144C178.957 365.872 179.241 365.66 179.585 365.508C179.929 365.356 180.297 365.28 180.689 365.28C181.217 365.28 181.689 365.392 182.105 365.616C182.521 365.84 182.841 366.164 183.065 366.588C183.265 366.188 183.577 365.872 184.001 365.64C184.425 365.4 184.881 365.28 185.369 365.28ZM192.702 372.108C192.078 372.108 191.514 371.968 191.01 371.688C190.506 371.4 190.11 371 189.822 370.488C189.534 369.968 189.39 369.368 189.39 368.688C189.39 368.016 189.538 367.42 189.834 366.9C190.13 366.38 190.534 365.98 191.046 365.7C191.558 365.42 192.13 365.28 192.762 365.28C193.394 365.28 193.966 365.42 194.478 365.7C194.99 365.98 195.394 366.38 195.69 366.9C195.986 367.42 196.134 368.016 196.134 368.688C196.134 369.36 195.982 369.956 195.678 370.476C195.374 370.996 194.958 371.4 194.43 371.688C193.91 371.968 193.334 372.108 192.702 372.108ZM192.702 370.92C193.054 370.92 193.382 370.836 193.686 370.668C193.998 370.5 194.25 370.248 194.442 369.912C194.634 369.576 194.73 369.168 194.73 368.688C194.73 368.208 194.638 367.804 194.454 367.476C194.27 367.14 194.026 366.888 193.722 366.72C193.418 366.552 193.09 366.468 192.738 366.468C192.386 366.468 192.058 366.552 191.754 366.72C191.458 366.888 191.222 367.14 191.046 367.476C190.87 367.804 190.782 368.208 190.782 368.688C190.782 369.4 190.962 369.952 191.322 370.344C191.69 370.728 192.15 370.92 192.702 370.92ZM200.042 370.776L201.914 365.388H203.366L200.846 372H199.214L196.706 365.388H198.17L200.042 370.776ZM210.46 368.532C210.46 368.78 210.444 369.004 210.412 369.204H205.36C205.4 369.732 205.596 370.156 205.948 370.476C206.3 370.796 206.732 370.956 207.244 370.956C207.98 370.956 208.5 370.648 208.804 370.032H210.28C210.08 370.64 209.716 371.14 209.188 371.532C208.668 371.916 208.02 372.108 207.244 372.108C206.612 372.108 206.044 371.968 205.54 371.688C205.044 371.4 204.652 371 204.364 370.488C204.084 369.968 203.944 369.368 203.944 368.688C203.944 368.008 204.08 367.412 204.352 366.9C204.632 366.38 205.02 365.98 205.516 365.7C206.02 365.42 206.596 365.28 207.244 365.28C207.868 365.28 208.424 365.416 208.912 365.688C209.4 365.96 209.78 366.344 210.052 366.84C210.324 367.328 210.46 367.892 210.46 368.532ZM209.032 368.1C209.024 367.596 208.844 367.192 208.492 366.888C208.14 366.584 207.704 366.432 207.184 366.432C206.712 366.432 206.308 366.584 205.972 366.888C205.636 367.184 205.436 367.588 205.372 368.1H209.032ZM211.35 368.664C211.35 368 211.486 367.412 211.758 366.9C212.038 366.388 212.414 365.992 212.886 365.712C213.366 365.424 213.898 365.28 214.482 365.28C214.914 365.28 215.338 365.376 215.754 365.568C216.178 365.752 216.514 366 216.762 366.312V363.12H218.142V372H216.762V371.004C216.538 371.324 216.226 371.588 215.826 371.796C215.434 372.004 214.982 372.108 214.47 372.108C213.894 372.108 213.366 371.964 212.886 371.676C212.414 371.38 212.038 370.972 211.758 370.452C211.486 369.924 211.35 369.328 211.35 368.664ZM216.762 368.688C216.762 368.232 216.666 367.836 216.474 367.5C216.29 367.164 216.046 366.908 215.742 366.732C215.438 366.556 215.11 366.468 214.758 366.468C214.406 366.468 214.078 366.556 213.774 366.732C213.47 366.9 213.222 367.152 213.03 367.488C212.846 367.816 212.754 368.208 212.754 368.664C212.754 369.12 212.846 369.52 213.03 369.864C213.222 370.208 213.47 370.472 213.774 370.656C214.086 370.832 214.414 370.92 214.758 370.92C215.11 370.92 215.438 370.832 215.742 370.656C216.046 370.48 216.29 370.224 216.474 369.888C216.666 369.544 216.762 369.144 216.762 368.688ZM225.924 372.108C225.3 372.108 224.736 371.968 224.232 371.688C223.728 371.4 223.332 371 223.044 370.488C222.756 369.968 222.612 369.368 222.612 368.688C222.612 368.016 222.76 367.42 223.056 366.9C223.352 366.38 223.756 365.98 224.268 365.7C224.78 365.42 225.352 365.28 225.984 365.28C226.616 365.28 227.188 365.42 227.7 365.7C228.212 365.98 228.616 366.38 228.912 366.9C229.208 367.42 229.356 368.016 229.356 368.688C229.356 369.36 229.204 369.956 228.9 370.476C228.596 370.996 228.18 371.4 227.652 371.688C227.132 371.968 226.556 372.108 225.924 372.108ZM225.924 370.92C226.276 370.92 226.604 370.836 226.908 370.668C227.22 370.5 227.472 370.248 227.664 369.912C227.856 369.576 227.952 369.168 227.952 368.688C227.952 368.208 227.86 367.804 227.676 367.476C227.492 367.14 227.248 366.888 226.944 366.72C226.64 366.552 226.312 366.468 225.96 366.468C225.608 366.468 225.28 366.552 224.976 366.72C224.68 366.888 224.444 367.14 224.268 367.476C224.092 367.804 224.004 368.208 224.004 368.688C224.004 369.4 224.184 369.952 224.544 370.344C224.912 370.728 225.372 370.92 225.924 370.92ZM232.077 366.348C232.277 366.012 232.541 365.752 232.869 365.568C233.205 365.376 233.601 365.28 234.057 365.28V366.696H233.709C233.173 366.696 232.765 366.832 232.485 367.104C232.213 367.376 232.077 367.848 232.077 368.52V372H230.709V365.388H232.077V366.348ZM241.767 365.28C242.287 365.28 242.751 365.388 243.159 365.604C243.575 365.82 243.899 366.14 244.131 366.564C244.363 366.988 244.479 367.5 244.479 368.1V372H243.123V368.304C243.123 367.712 242.975 367.26 242.679 366.948C242.383 366.628 241.979 366.468 241.467 366.468C240.955 366.468 240.547 366.628 240.243 366.948C239.947 367.26 239.799 367.712 239.799 368.304V372H238.431V365.388H239.799V366.144C240.023 365.872 240.307 365.66 240.651 365.508C241.003 365.356 241.375 365.28 241.767 365.28ZM252.284 368.532C252.284 368.78 252.268 369.004 252.236 369.204H247.184C247.224 369.732 247.42 370.156 247.772 370.476C248.124 370.796 248.556 370.956 249.068 370.956C249.804 370.956 250.324 370.648 250.628 370.032H252.104C251.904 370.64 251.54 371.14 251.012 371.532C250.492 371.916 249.844 372.108 249.068 372.108C248.436 372.108 247.868 371.968 247.364 371.688C246.868 371.4 246.476 371 246.188 370.488C245.908 369.968 245.768 369.368 245.768 368.688C245.768 368.008 245.904 367.412 246.176 366.9C246.456 366.38 246.844 365.98 247.34 365.7C247.844 365.42 248.42 365.28 249.068 365.28C249.692 365.28 250.248 365.416 250.736 365.688C251.224 365.96 251.604 366.344 251.876 366.84C252.148 367.328 252.284 367.892 252.284 368.532ZM250.856 368.1C250.848 367.596 250.668 367.192 250.316 366.888C249.964 366.584 249.528 366.432 249.008 366.432C248.536 366.432 248.132 366.584 247.796 366.888C247.46 367.184 247.26 367.588 247.196 368.1H250.856ZM256.186 370.776L258.058 365.388H259.51L256.99 372H255.358L252.85 365.388H254.314L256.186 370.776ZM266.605 368.532C266.605 368.78 266.589 369.004 266.557 369.204H261.505C261.545 369.732 261.741 370.156 262.093 370.476C262.445 370.796 262.877 370.956 263.389 370.956C264.125 370.956 264.645 370.648 264.949 370.032H266.425C266.225 370.64 265.861 371.14 265.333 371.532C264.813 371.916 264.165 372.108 263.389 372.108C262.757 372.108 262.189 371.968 261.685 371.688C261.189 371.4 260.797 371 260.509 370.488C260.229 369.968 260.089 369.368 260.089 368.688C260.089 368.008 260.225 367.412 260.497 366.9C260.777 366.38 261.165 365.98 261.661 365.7C262.165 365.42 262.741 365.28 263.389 365.28C264.013 365.28 264.569 365.416 265.057 365.688C265.545 365.96 265.925 366.344 266.197 366.84C266.469 367.328 266.605 367.892 266.605 368.532ZM265.177 368.1C265.169 367.596 264.989 367.192 264.637 366.888C264.285 366.584 263.849 366.432 263.329 366.432C262.857 366.432 262.453 366.584 262.117 366.888C261.781 367.184 261.581 367.588 261.517 368.1H265.177ZM269.319 366.348C269.519 366.012 269.783 365.752 270.111 365.568C270.447 365.376 270.843 365.28 271.299 365.28V366.696H270.951C270.415 366.696 270.007 366.832 269.727 367.104C269.455 367.376 269.319 367.848 269.319 368.52V372H267.951V365.388H269.319V366.348ZM281.733 368.532C281.733 368.78 281.717 369.004 281.685 369.204H276.633C276.673 369.732 276.869 370.156 277.221 370.476C277.573 370.796 278.005 370.956 278.517 370.956C279.253 370.956 279.773 370.648 280.077 370.032H281.553C281.353 370.64 280.989 371.14 280.461 371.532C279.941 371.916 279.293 372.108 278.517 372.108C277.885 372.108 277.317 371.968 276.813 371.688C276.317 371.4 275.925 371 275.637 370.488C275.357 369.968 275.217 369.368 275.217 368.688C275.217 368.008 275.353 367.412 275.625 366.9C275.905 366.38 276.293 365.98 276.789 365.7C277.293 365.42 277.869 365.28 278.517 365.28C279.141 365.28 279.697 365.416 280.185 365.688C280.673 365.96 281.053 366.344 281.325 366.84C281.597 367.328 281.733 367.892 281.733 368.532ZM280.305 368.1C280.297 367.596 280.117 367.192 279.765 366.888C279.413 366.584 278.977 366.432 278.457 366.432C277.985 366.432 277.581 366.584 277.245 366.888C276.909 367.184 276.709 367.588 276.645 368.1H280.305ZM285.912 368.652L288.048 372H286.5L285.072 369.756L283.728 372H282.3L284.436 368.748L282.3 365.388H283.848L285.276 367.632L286.62 365.388H288.048L285.912 368.652ZM289.764 364.512C289.516 364.512 289.308 364.428 289.14 364.26C288.972 364.092 288.888 363.884 288.888 363.636C288.888 363.388 288.972 363.18 289.14 363.012C289.308 362.844 289.516 362.76 289.764 362.76C290.004 362.76 290.208 362.844 290.376 363.012C290.544 363.18 290.628 363.388 290.628 363.636C290.628 363.884 290.544 364.092 290.376 364.26C290.208 364.428 290.004 364.512 289.764 364.512ZM290.436 365.388V372H289.068V365.388H290.436ZM294.632 372.108C294.112 372.108 293.644 372.016 293.228 371.832C292.82 371.64 292.496 371.384 292.256 371.064C292.016 370.736 291.888 370.372 291.872 369.972H293.288C293.312 370.252 293.444 370.488 293.684 370.68C293.932 370.864 294.24 370.956 294.608 370.956C294.992 370.956 295.288 370.884 295.496 370.74C295.712 370.588 295.82 370.396 295.82 370.164C295.82 369.916 295.7 369.732 295.46 369.612C295.228 369.492 294.856 369.36 294.344 369.216C293.848 369.08 293.444 368.948 293.132 368.82C292.82 368.692 292.548 368.496 292.316 368.232C292.092 367.968 291.98 367.62 291.98 367.188C291.98 366.836 292.084 366.516 292.292 366.228C292.5 365.932 292.796 365.7 293.18 365.532C293.572 365.364 294.02 365.28 294.524 365.28C295.276 365.28 295.88 365.472 296.336 365.856C296.8 366.232 297.048 366.748 297.08 367.404H295.712C295.688 367.108 295.568 366.872 295.352 366.696C295.136 366.52 294.844 366.432 294.476 366.432C294.116 366.432 293.84 366.5 293.648 366.636C293.456 366.772 293.36 366.952 293.36 367.176C293.36 367.352 293.424 367.5 293.552 367.62C293.68 367.74 293.836 367.836 294.02 367.908C294.204 367.972 294.476 368.056 294.836 368.16C295.316 368.288 295.708 368.42 296.012 368.556C296.324 368.684 296.592 368.876 296.816 369.132C297.04 369.388 297.156 369.728 297.164 370.152C297.164 370.528 297.06 370.864 296.852 371.16C296.644 371.456 296.348 371.688 295.964 371.856C295.588 372.024 295.144 372.108 294.632 372.108ZM300.238 366.504V370.164C300.238 370.412 300.294 370.592 300.406 370.704C300.526 370.808 300.726 370.86 301.006 370.86H301.846V372H300.766C300.15 372 299.678 371.856 299.35 371.568C299.022 371.28 298.858 370.812 298.858 370.164V366.504H298.078V365.388H298.858V363.744H300.238V365.388H301.846V366.504H300.238ZM309.167 368.532C309.167 368.78 309.151 369.004 309.119 369.204H304.067C304.107 369.732 304.303 370.156 304.655 370.476C305.007 370.796 305.439 370.956 305.951 370.956C306.687 370.956 307.207 370.648 307.511 370.032H308.987C308.787 370.64 308.423 371.14 307.895 371.532C307.375 371.916 306.727 372.108 305.951 372.108C305.319 372.108 304.751 371.968 304.247 371.688C303.751 371.4 303.359 371 303.071 370.488C302.791 369.968 302.651 369.368 302.651 368.688C302.651 368.008 302.787 367.412 303.059 366.9C303.339 366.38 303.727 365.98 304.223 365.7C304.727 365.42 305.303 365.28 305.951 365.28C306.575 365.28 307.131 365.416 307.619 365.688C308.107 365.96 308.487 366.344 308.759 366.84C309.031 367.328 309.167 367.892 309.167 368.532ZM307.739 368.1C307.731 367.596 307.551 367.192 307.199 366.888C306.847 366.584 306.411 366.432 305.891 366.432C305.419 366.432 305.015 366.584 304.679 366.888C304.343 367.184 304.143 367.588 304.079 368.1H307.739ZM310.057 368.664C310.057 368 310.193 367.412 310.465 366.9C310.745 366.388 311.121 365.992 311.593 365.712C312.073 365.424 312.605 365.28 313.189 365.28C313.621 365.28 314.045 365.376 314.461 365.568C314.885 365.752 315.221 366 315.469 366.312V363.12H316.849V372H315.469V371.004C315.245 371.324 314.933 371.588 314.533 371.796C314.141 372.004 313.689 372.108 313.177 372.108C312.601 372.108 312.073 371.964 311.593 371.676C311.121 371.38 310.745 370.972 310.465 370.452C310.193 369.924 310.057 369.328 310.057 368.664ZM315.469 368.688C315.469 368.232 315.373 367.836 315.181 367.5C314.997 367.164 314.753 366.908 314.449 366.732C314.145 366.556 313.817 366.468 313.465 366.468C313.113 366.468 312.785 366.556 312.481 366.732C312.177 366.9 311.929 367.152 311.737 367.488C311.553 367.816 311.461 368.208 311.461 368.664C311.461 369.12 311.553 369.52 311.737 369.864C311.929 370.208 312.177 370.472 312.481 370.656C312.793 370.832 313.121 370.92 313.465 370.92C313.817 370.92 314.145 370.832 314.449 370.656C314.753 370.48 314.997 370.224 315.181 369.888C315.373 369.544 315.469 369.144 315.469 368.688ZM319.198 372.084C318.95 372.084 318.742 372 318.574 371.832C318.406 371.664 318.322 371.456 318.322 371.208C318.322 370.96 318.406 370.752 318.574 370.584C318.742 370.416 318.95 370.332 319.198 370.332C319.438 370.332 319.642 370.416 319.81 370.584C319.978 370.752 320.062 370.96 320.062 371.208C320.062 371.456 319.978 371.664 319.81 371.832C319.642 372 319.438 372.084 319.198 372.084Z" fill="#A7A5A5"/>
</svg>
