<svg width="400px" height="400" viewBox="0 0 187 184" fill="none" xmlns="http://www.w3.org/2000/svg">
<path d="M91.6667 16.6667C76.8331 16.6667 62.3326 21.0653 49.9989 29.3064C37.6652 37.5476 28.0523 49.2609 22.3757 62.9654C16.6991 76.6699 15.2139 91.7499 18.1078 106.298C21.0017 120.847 28.1447 134.211 38.6337 144.7C49.1226 155.189 62.4863 162.332 77.0349 165.226C91.5835 168.119 106.663 166.634 120.368 160.958C134.072 155.281 145.786 145.668 154.027 133.334C162.268 121.001 166.667 106.5 166.667 91.6667V83.3333H183.333V91.6667C183.333 142.292 142.292 183.333 91.6667 183.333C41.0417 183.333 0 142.292 0 91.6667C0 41.0417 41.0417 0 91.6667 0C104.15 0 116.067 2.5 126.933 7.03333L134.625 10.2417L128.208 25.625L120.517 22.4167C111.374 18.6143 101.569 16.6601 91.6667 16.6667ZM186.783 29.1667L91.6667 124.283L42.3833 75L54.1667 63.2167L91.6667 100.717L175 17.3833L186.783 29.1667Z" fill="#44B40D" fill-opacity="0.1"/>
</svg>
