<svg width="61" height="60" viewBox="0 0 61 60" fill="none" xmlns="http://www.w3.org/2000/svg">
<rect x="0.75" width="60" height="60" rx="20" fill="#44B40D" fill-opacity="0.2"/>
<path fill-rule="evenodd" clip-rule="evenodd" d="M12.676 43.076C13.292 43.692 14.0607 44 14.982 44H30.446C30.326 43.6747 30.224 43.352 30.14 43.032C30.0547 42.7107 29.9747 42.3667 29.9 42H14.982C14.622 42 14.3267 41.8847 14.096 41.654C13.8653 41.4233 13.75 41.1287 13.75 40.77V21.232C13.75 20.872 13.8653 20.5767 14.096 20.346C14.3267 20.1153 14.6213 20 14.98 20H44.52C44.8787 20 45.1733 20.1153 45.404 20.346C45.6347 20.5767 45.75 20.872 45.75 21.232V28.678C46.1247 28.8087 46.472 28.9487 46.792 29.098C47.112 29.2487 47.4313 29.4253 47.75 29.628V21.232C47.7487 20.312 47.44 19.5433 46.824 18.926C46.208 18.3087 45.44 18 44.52 18H35.75V15.23C35.7513 14.3087 35.4433 13.54 34.826 12.924C34.2087 12.308 33.44 12 32.52 12H26.982C26.062 11.9987 25.2933 12.3067 24.676 12.924C24.0587 13.5413 23.75 14.31 23.75 15.23V18H14.98C14.0613 18.0013 13.2933 18.31 12.676 18.926C12.0587 19.542 11.75 20.3107 11.75 21.232V40.768C11.7513 41.6907 12.06 42.46 12.676 43.076ZM33.75 18H25.75V15.23C25.75 14.8713 25.8653 14.5767 26.096 14.346C26.3267 14.1153 26.6213 14 26.98 14H32.52C32.8787 14 33.1733 14.1153 33.404 14.346C33.6347 14.5767 33.75 14.8713 33.75 15.23V18ZM36.08 45.672C37.632 47.224 39.522 48 41.75 48C43.982 48.0027 45.8727 47.2267 47.422 45.672C48.9713 44.1173 49.7473 42.2267 49.75 40C49.7527 37.7733 48.9767 35.8833 47.422 34.33C45.8673 32.7767 43.9767 32 41.75 32C39.5233 32 37.6333 32.7767 36.08 34.33C34.5267 35.8833 33.75 37.7733 33.75 40C33.75 42.2267 34.5267 44.1173 36.08 45.672ZM40.352 42.39L46.4691 36.0006L47.25 36.8155L40.7424 43.611L40.352 44L39.9615 43.6115L37.25 40.7801L38.0309 39.9663L40.352 42.39Z" fill="#44B40D"/>
</svg>
