<svg width="200" height="152" viewBox="0 0 200 152" fill="none" xmlns="http://www.w3.org/2000/svg">
<path fill-rule="evenodd" clip-rule="evenodd" d="M47.7915 69.5679L53.9978 74.8353C55.3503 75.983 57.0301 76.6774 58.7997 76.8204L66.9202 77.4753C71.0571 77.809 74.3412 81.0865 74.6756 85.215L75.332 93.3191C75.4752 95.0851 76.171 96.7614 77.3209 98.1113L82.5989 104.305C85.2875 107.46 85.2875 112.095 82.5989 115.25L77.3209 121.444C76.1709 122.794 75.4751 124.47 75.3318 126.236L74.6754 134.341C74.3412 138.469 71.0569 141.747 66.9202 142.08L58.7997 142.735C57.0301 142.878 55.3504 143.573 53.9978 144.72L47.7915 149.988C44.6299 152.671 39.9853 152.671 36.8237 149.988L30.6176 144.72C29.265 143.573 27.5853 142.878 25.8157 142.735L17.6952 142.08C13.5583 141.747 10.2742 138.469 9.93982 134.341L9.28339 126.236C9.14009 124.47 8.44427 122.794 7.29426 121.444L2.01644 115.25C-0.672147 112.095 -0.672147 107.46 2.01644 104.305L7.29446 98.1113C8.44446 96.7615 9.14029 95.0851 9.28358 93.3191L9.93982 85.215C10.2742 81.0865 13.5583 77.809 17.6952 77.4753L25.8157 76.8202C27.5853 76.6772 29.265 75.9828 30.6176 74.8351L36.8237 69.5679C39.9853 66.8848 44.6299 66.8848 47.7915 69.5679ZM58.223 94.6762L38.0604 114.907L28.3595 105.226L22.3769 111.197L38.0604 126.849L64.2058 100.647L58.223 94.6762Z" fill="#44B40D"/>
<path d="M30.3846 0C23.9582 0 17.795 2.54641 13.2509 7.07906C8.70672 11.6117 6.15385 17.7593 6.15385 24.1694V68.5324C9.60673 64.2786 13.6896 60.5565 18.2692 57.4991V24.1694C18.2692 20.9644 19.5457 17.8906 21.8177 15.6243C24.0898 13.3579 27.1714 12.0847 30.3846 12.0847H175.769C178.982 12.0847 182.064 13.3579 184.336 15.6243C186.608 17.8906 187.885 20.9644 187.885 24.1694V120.847C187.885 124.052 186.608 127.126 184.336 129.392C182.064 131.659 178.982 132.932 175.769 132.932H93.8935C92.9708 134.296 91.9927 135.623 90.9615 136.908V145.017H175.769C182.196 145.017 188.359 142.47 192.903 137.938C197.447 133.405 200 127.257 200 120.847V24.1694C200 17.7593 197.447 11.6117 192.903 7.07906C188.359 2.54641 182.196 0 175.769 0H30.3846ZM42.5 42.2965C42.5 40.694 43.1382 39.1571 44.2743 38.0239C45.4103 36.8908 46.9511 36.2542 48.5577 36.2542H157.596C159.203 36.2542 160.744 36.8908 161.88 38.0239C163.016 39.1571 163.654 40.694 163.654 42.2965C163.654 43.899 163.016 45.4359 161.88 46.5691C160.744 47.7023 159.203 48.3389 157.596 48.3389H48.5577C46.9511 48.3389 45.4103 47.7023 44.2743 46.5691C43.1382 45.4359 42.5 43.899 42.5 42.2965ZM109.135 84.593C107.528 84.593 105.987 85.2296 104.851 86.3628C103.715 87.4959 103.077 89.0329 103.077 90.6354C103.077 92.2379 103.715 93.7748 104.851 94.908C105.987 96.0411 107.528 96.6777 109.135 96.6777H157.596C159.203 96.6777 160.744 96.0411 161.88 94.908C163.016 93.7748 163.654 92.2379 163.654 90.6354C163.654 89.0329 163.016 87.4959 161.88 86.3628C160.744 85.2296 159.203 84.593 157.596 84.593H109.135Z" fill="#44B40D" fill-opacity="0.15"/>
</svg>
