<svg width="26" height="10" viewBox="0 0 26 10" fill="none" xmlns="http://www.w3.org/2000/svg">
<path d="M0.912 9.5V1.1H7.356V2.72H2.772V4.436H6.876V5.984H2.772V7.868H7.44V9.5H0.912ZM13.431 9.62C12.431 9.62 11.575 9.444 10.863 9.092C10.151 8.74 9.607 8.24 9.231 7.592C8.855 6.944 8.667 6.176 8.667 5.288C8.667 4.584 8.787 3.964 9.027 3.428C9.267 2.892 9.599 2.444 10.023 2.084C10.455 1.716 10.955 1.44 11.523 1.256C12.091 1.072 12.699 0.98 13.347 0.98C13.731 0.98 14.115 1.02 14.499 1.1C14.891 1.172 15.275 1.28 15.651 1.424L16.035 1.58L15.723 2.984L15.255 2.9C14.919 2.828 14.595 2.772 14.283 2.732C13.979 2.692 13.687 2.672 13.407 2.672C12.847 2.672 12.355 2.764 11.931 2.948C11.507 3.132 11.175 3.42 10.935 3.812C10.695 4.196 10.575 4.696 10.575 5.312C10.575 5.912 10.687 6.412 10.911 6.812C11.143 7.204 11.475 7.5 11.907 7.7C12.339 7.892 12.863 7.988 13.479 7.988C13.703 7.988 13.935 7.976 14.175 7.952C14.415 7.92 14.659 7.876 14.907 7.82V6.212H12.747V4.724H16.647V8.804C16.375 8.956 16.059 9.096 15.699 9.224C15.347 9.344 14.979 9.44 14.595 9.512C14.211 9.584 13.823 9.62 13.431 9.62ZM18.4076 9.5V1.1H22.3676C22.9916 1.1 23.5236 1.216 23.9636 1.448C24.4116 1.68 24.7516 2.012 24.9836 2.444C25.2156 2.876 25.3316 3.388 25.3316 3.98C25.3316 4.58 25.2076 5.104 24.9596 5.552C24.7196 5.992 24.3756 6.332 23.9276 6.572C23.4796 6.812 22.9516 6.932 22.3436 6.932H20.2556L20.2676 9.5H18.4076ZM20.2676 5.324H22.0076C22.4636 5.324 22.8116 5.22 23.0516 5.012C23.2996 4.796 23.4236 4.456 23.4236 3.992C23.4236 3.52 23.2996 3.188 23.0516 2.996C22.8116 2.796 22.4636 2.696 22.0076 2.696H20.2676V5.324Z" fill="#44B40D"/>
</svg>
