<svg width="30" height="31" viewBox="0 0 30 31" fill="none" xmlns="http://www.w3.org/2000/svg">
<path d="M12.1875 15.5C12.1875 14.7541 12.4838 14.0387 13.0113 13.5113C13.5387 12.9838 14.2541 12.6875 15 12.6875C15.7459 12.6875 16.4613 12.9838 16.9887 13.5113C17.5162 14.0387 17.8125 14.7541 17.8125 15.5C17.8125 16.2459 17.5162 16.9613 16.9887 17.4887C16.4613 18.0162 15.7459 18.3125 15 18.3125C14.2541 18.3125 13.5387 18.0162 13.0113 17.4887C12.4838 16.9613 12.1875 16.2459 12.1875 15.5Z" fill="#A7A5A5"/>
<path fill-rule="evenodd" clip-rule="evenodd" d="M2.5 15.5C2.5 17.55 3.03125 18.2387 4.09375 19.62C6.215 22.375 9.7725 25.5 15 25.5C20.2275 25.5 23.785 22.375 25.9063 19.62C26.9688 18.24 27.5 17.5488 27.5 15.5C27.5 13.45 26.9688 12.7613 25.9063 11.38C23.785 8.625 20.2275 5.5 15 5.5C9.7725 5.5 6.215 8.625 4.09375 11.38C3.03125 12.7625 2.5 13.4512 2.5 15.5ZM15 10.8125C13.7568 10.8125 12.5645 11.3064 11.6854 12.1854C10.8064 13.0645 10.3125 14.2568 10.3125 15.5C10.3125 16.7432 10.8064 17.9355 11.6854 18.8146C12.5645 19.6936 13.7568 20.1875 15 20.1875C16.2432 20.1875 17.4355 19.6936 18.3146 18.8146C19.1936 17.9355 19.6875 16.7432 19.6875 15.5C19.6875 14.2568 19.1936 13.0645 18.3146 12.1854C17.4355 11.3064 16.2432 10.8125 15 10.8125Z" fill="#A7A5A5"/>
</svg>
