<svg width="55" height="60" viewBox="0 0 55 60" fill="none" xmlns="http://www.w3.org/2000/svg">
<path d="M36.3909 50.6669L36.5357 22.4062H42.9784V43.2223C42.8046 49.9297 38.5143 50.9801 36.3909 50.6669Z" fill="#BF272D"/>
<path d="M18.2934 3.25251C18.2934 5.04882 16.8349 6.50502 15.0358 6.50502C13.2367 6.50502 11.7783 5.04882 11.7783 3.25251C11.7783 1.4562 13.2367 0 15.0358 0C16.8349 0 18.2934 1.4562 18.2934 3.25251Z" fill="#BF272D"/>
<path fill-rule="evenodd" clip-rule="evenodd" d="M31.1064 47.053V20.5992H42.9784V13.8774H18.583C18.5588 11.7572 17.1931 7.58919 11.9231 7.87831V35.5608C12.647 37.7773 14.9924 41.9212 18.583 40.7648V20.5992H24.0846V40.7648C24.1811 42.8609 25.7206 47.053 31.1064 47.053ZM39.5037 19.8042C40.903 19.8042 42.0373 18.6716 42.0373 17.2744C42.0373 15.8773 40.903 14.7447 39.5037 14.7447C38.1044 14.7447 36.97 15.8773 36.97 17.2744C36.97 18.6716 38.1044 19.8042 39.5037 19.8042Z" fill="#BF272D"/>
<path d="M2.89188 53.434V54.1981H0.939357V55.4085H2.43562V56.1591H0.939357V58.1539H0V53.434H2.89188Z" fill="#BF272D"/>
<path d="M4.49733 54.9893C4.6181 54.7909 4.77466 54.6354 4.96701 54.5227C5.16383 54.41 5.38748 54.3537 5.63798 54.3537V55.3477H5.38972C5.09449 55.3477 4.87084 55.4176 4.71875 55.5573C4.57114 55.6971 4.49733 55.9405 4.49733 56.2876V58.1539H3.55797V54.4077H4.49733V54.9893Z" fill="#BF272D"/>
<path d="M9.72618 56.1997C9.72618 56.3349 9.71723 56.4567 9.69934 56.5649H6.98191C7.00428 56.8353 7.09821 57.0472 7.26372 57.2005C7.42922 57.3538 7.63275 57.4304 7.8743 57.4304C8.2232 57.4304 8.47146 57.2794 8.61907 56.9773H9.63224C9.52488 57.338 9.31912 57.6355 9.01495 57.8699C8.71077 58.0998 8.33727 58.2148 7.89443 58.2148C7.53658 58.2148 7.21451 58.1359 6.92823 57.9781C6.64642 57.8158 6.425 57.5882 6.26397 57.2952C6.10741 57.0021 6.02913 56.664 6.02913 56.2808C6.02913 55.8932 6.10741 55.5528 6.26397 55.2598C6.42053 54.9668 6.63972 54.7413 6.92152 54.5836C7.20333 54.4258 7.52763 54.3469 7.89443 54.3469C8.2478 54.3469 8.56316 54.4235 8.8405 54.5768C9.1223 54.7301 9.33925 54.9487 9.49133 55.2327C9.64789 55.5122 9.72618 55.8345 9.72618 56.1997ZM8.75327 55.9292C8.7488 55.6858 8.66157 55.4919 8.49159 55.3477C8.32161 55.1989 8.11361 55.1245 7.86759 55.1245C7.63499 55.1245 7.43817 55.1967 7.27714 55.3409C7.12058 55.4807 7.0244 55.6768 6.98862 55.9292H8.75327Z" fill="#BF272D"/>
<path d="M13.8673 56.1997C13.8673 56.3349 13.8584 56.4567 13.8405 56.5649H11.123C11.1454 56.8353 11.2394 57.0472 11.4049 57.2005C11.5704 57.3538 11.7739 57.4304 12.0154 57.4304C12.3643 57.4304 12.6126 57.2794 12.7602 56.9773H13.7734C13.666 57.338 13.4603 57.6355 13.1561 57.8699C12.8519 58.0998 12.4784 58.2148 12.0356 58.2148C11.6777 58.2148 11.3557 58.1359 11.0694 57.9781C10.7876 57.8158 10.5661 57.5882 10.4051 57.2952C10.2486 57.0021 10.1703 56.664 10.1703 56.2808C10.1703 55.8932 10.2486 55.5528 10.4051 55.2598C10.5617 54.9668 10.7809 54.7413 11.0627 54.5836C11.3445 54.4258 11.6688 54.3469 12.0356 54.3469C12.3889 54.3469 12.7043 54.4235 12.9816 54.5768C13.2634 54.7301 13.4804 54.9487 13.6325 55.2327C13.789 55.5122 13.8673 55.8345 13.8673 56.1997ZM12.8944 55.9292C12.8899 55.6858 12.8027 55.4919 12.6327 55.3477C12.4628 55.1989 12.2548 55.1245 12.0087 55.1245C11.7761 55.1245 11.5793 55.1967 11.4183 55.3409C11.2617 55.4807 11.1655 55.6768 11.1298 55.9292H12.8944Z" fill="#BF272D"/>
<path d="M15.4923 53.15V58.1539H14.553V53.15H15.4923Z" fill="#BF272D"/>
<path d="M16.1789 56.2673C16.1789 55.8886 16.2527 55.5528 16.4003 55.2598C16.5524 54.9668 16.7559 54.7413 17.0109 54.5836C17.2703 54.4258 17.5588 54.3469 17.8764 54.3469C18.1537 54.3469 18.3953 54.4032 18.6011 54.5159C18.8113 54.6286 18.979 54.7706 19.1043 54.942V54.4077H20.0504V58.1539H19.1043V57.6062C18.9835 57.782 18.8158 57.9285 18.6011 58.0457C18.3908 58.1585 18.147 58.2148 17.8697 58.2148C17.5566 58.2148 17.2703 58.1337 17.0109 57.9714C16.7559 57.8091 16.5524 57.5814 16.4003 57.2884C16.2527 56.9909 16.1789 56.6505 16.1789 56.2673ZM19.1043 56.2808C19.1043 56.0509 19.0596 55.8548 18.9701 55.6925C18.8806 55.5257 18.7599 55.3995 18.6078 55.3139C18.4557 55.2237 18.2924 55.1786 18.118 55.1786C17.9435 55.1786 17.7825 55.2215 17.6349 55.3071C17.4872 55.3928 17.3665 55.519 17.2725 55.6858C17.1831 55.8481 17.1383 56.0419 17.1383 56.2673C17.1383 56.4927 17.1831 56.6911 17.2725 56.8624C17.3665 57.0292 17.4872 57.1577 17.6349 57.2478C17.7869 57.338 17.948 57.3831 18.118 57.3831C18.2924 57.3831 18.4557 57.3402 18.6078 57.2546C18.7599 57.1644 18.8806 57.0382 18.9701 56.8759C19.0596 56.7091 19.1043 56.5108 19.1043 56.2808Z" fill="#BF272D"/>
<path d="M23.0277 54.3537C23.4705 54.3537 23.8284 54.4957 24.1012 54.7797C24.3741 55.0592 24.5105 55.4514 24.5105 55.9563V58.1539H23.5712V56.0847C23.5712 55.7872 23.4974 55.5596 23.3497 55.4018C23.2021 55.2395 23.0008 55.1583 22.7459 55.1583C22.4864 55.1583 22.2807 55.2395 22.1286 55.4018C21.981 55.5596 21.9072 55.7872 21.9072 56.0847V58.1539H20.9678V54.4077H21.9072V54.8743C22.0324 54.712 22.1912 54.5858 22.3835 54.4957C22.5804 54.401 22.7951 54.3537 23.0277 54.3537Z" fill="#BF272D"/>
<path d="M25.1622 56.2808C25.1622 55.8932 25.2405 55.5551 25.3971 55.2665C25.5536 54.9735 25.7706 54.7481 26.0479 54.5903C26.3253 54.428 26.6429 54.3469 27.0007 54.3469C27.4614 54.3469 27.8417 54.4641 28.1414 54.6985C28.4455 54.9284 28.6491 55.253 28.7519 55.6723H27.7388C27.6851 55.51 27.5934 55.3837 27.4637 55.2936C27.3384 55.1989 27.1819 55.1516 26.994 55.1516C26.7256 55.1516 26.5131 55.2508 26.3566 55.4491C26.2 55.643 26.1217 55.9202 26.1217 56.2808C26.1217 56.637 26.2 56.9142 26.3566 57.1126C26.5131 57.3064 26.7256 57.4034 26.994 57.4034C27.3742 57.4034 27.6225 57.232 27.7388 56.8894H28.7519C28.6491 57.2952 28.4455 57.6175 28.1414 57.8564C27.8372 58.0953 27.457 58.2148 27.0007 58.2148C26.6429 58.2148 26.3253 58.1359 26.0479 57.9781C25.7706 57.8158 25.5536 57.5904 25.3971 57.3019C25.2405 57.0089 25.1622 56.6685 25.1622 56.2808Z" fill="#BF272D"/>
<path d="M29.9165 53.9615C29.751 53.9615 29.6123 53.9096 29.5005 53.8059C29.3931 53.6977 29.3395 53.5647 29.3395 53.407C29.3395 53.2492 29.3931 53.1184 29.5005 53.0148C29.6123 52.9066 29.751 52.8525 29.9165 52.8525C30.082 52.8525 30.2184 52.9066 30.3258 53.0148C30.4376 53.1184 30.4935 53.2492 30.4935 53.407C30.4935 53.5647 30.4376 53.6977 30.3258 53.8059C30.2184 53.9096 30.082 53.9615 29.9165 53.9615ZM30.3795 54.4077V58.1539H29.4401V54.4077H30.3795Z" fill="#BF272D"/>
<path d="M33.3674 54.3537C33.8103 54.3537 34.1681 54.4957 34.441 54.7797C34.7138 55.0592 34.8503 55.4514 34.8503 55.9563V58.1539H33.9109V56.0847C33.9109 55.7872 33.8371 55.5596 33.6895 55.4018C33.5419 55.2395 33.3406 55.1583 33.0856 55.1583C32.8262 55.1583 32.6204 55.2395 32.4683 55.4018C32.3207 55.5596 32.2469 55.7872 32.2469 56.0847V58.1539H31.3075V54.4077H32.2469V54.8743C32.3721 54.712 32.5309 54.5858 32.7233 54.4957C32.9201 54.401 33.1348 54.3537 33.3674 54.3537Z" fill="#BF272D"/>
<path d="M37.1995 54.3469C37.4769 54.3469 37.7207 54.4032 37.9309 54.5159C38.1411 54.6241 38.3066 54.7661 38.4274 54.942V54.4077H39.3735V58.181C39.3735 58.5281 39.3042 58.8369 39.1655 59.1074C39.0268 59.3824 38.8188 59.5988 38.5415 59.7566C38.2641 59.9189 37.9287 60 37.535 60C37.0072 60 36.5733 59.876 36.2333 59.6281C35.8979 59.3801 35.7078 59.042 35.663 58.6138H36.5957C36.6449 58.7851 36.75 58.9203 36.911 59.0195C37.0765 59.1232 37.2756 59.175 37.5082 59.175C37.7811 59.175 38.0025 59.0916 38.1725 58.9248C38.3424 58.7625 38.4274 58.5146 38.4274 58.181V57.5995C38.3066 57.7753 38.1389 57.9218 37.9242 58.039C37.714 58.1562 37.4724 58.2148 37.1995 58.2148C36.8864 58.2148 36.6001 58.1337 36.3407 57.9714C36.0813 57.8091 35.8755 57.5814 35.7234 57.2884C35.5758 56.9909 35.502 56.6505 35.502 56.2673C35.502 55.8886 35.5758 55.5528 35.7234 55.2598C35.8755 54.9668 36.079 54.7413 36.334 54.5836C36.5934 54.4258 36.882 54.3469 37.1995 54.3469ZM38.4274 56.2808C38.4274 56.0509 38.3827 55.8548 38.2932 55.6925C38.2038 55.5257 38.083 55.3995 37.9309 55.3139C37.7788 55.2237 37.6155 55.1786 37.4411 55.1786C37.2666 55.1786 37.1056 55.2215 36.958 55.3071C36.8104 55.3928 36.6896 55.519 36.5957 55.6858C36.5062 55.8481 36.4615 56.0419 36.4615 56.2673C36.4615 56.4927 36.5062 56.6911 36.5957 56.8624C36.6896 57.0292 36.8104 57.1577 36.958 57.2478C37.1101 57.338 37.2711 57.3831 37.4411 57.3831C37.6155 57.3831 37.7788 57.3402 37.9309 57.2546C38.083 57.1644 38.2038 57.0382 38.2932 56.8759C38.3827 56.7091 38.4274 56.5108 38.4274 56.2808Z" fill="#BF272D"/>
<path d="M45.7746 53.434V58.1539H44.8353V56.1456H42.8291V58.1539H41.8897V53.434H42.8291V55.3747H44.8353V53.434H45.7746Z" fill="#BF272D"/>
<path d="M50.2084 54.4077V58.1539H49.2623V57.6806C49.1415 57.8429 48.9827 57.9714 48.7859 58.066C48.5936 58.1562 48.3833 58.2013 48.1552 58.2013C47.8645 58.2013 47.6073 58.1404 47.3836 58.0187C47.1599 57.8925 46.9833 57.7099 46.8535 57.471C46.7283 57.2275 46.6657 56.939 46.6657 56.6054V54.4077H47.605V56.4702C47.605 56.7677 47.6788 56.9976 47.8264 57.1599C47.9741 57.3177 48.1753 57.3966 48.4303 57.3966C48.6898 57.3966 48.8933 57.3177 49.0409 57.1599C49.1885 56.9976 49.2623 56.7677 49.2623 56.4702V54.4077H50.2084Z" fill="#BF272D"/>
<path d="M52.0746 54.9555C52.1953 54.7752 52.3609 54.6286 52.5711 54.5159C52.7858 54.4032 53.0296 54.3469 53.3024 54.3469C53.62 54.3469 53.9063 54.4258 54.1613 54.5836C54.4207 54.7413 54.6243 54.9668 54.7719 55.2598C54.924 55.5483 55 55.8841 55 56.2673C55 56.6505 54.924 56.9909 54.7719 57.2884C54.6243 57.5814 54.4207 57.8091 54.1613 57.9714C53.9063 58.1337 53.62 58.2148 53.3024 58.2148C53.0251 58.2148 52.7813 58.1607 52.5711 58.0525C52.3653 57.9398 52.1998 57.7956 52.0746 57.6197V58.1539H51.1352V53.15H52.0746V54.9555ZM54.0405 56.2673C54.0405 56.0419 53.9935 55.8481 53.8996 55.6858C53.8101 55.519 53.6894 55.3928 53.5373 55.3071C53.3897 55.2215 53.2286 55.1786 53.0542 55.1786C52.8842 55.1786 52.7232 55.2237 52.5711 55.3139C52.4235 55.3995 52.3027 55.5257 52.2088 55.6925C52.1193 55.8593 52.0746 56.0554 52.0746 56.2808C52.0746 56.5063 52.1193 56.7024 52.2088 56.8691C52.3027 57.0359 52.4235 57.1644 52.5711 57.2546C52.7232 57.3402 52.8842 57.3831 53.0542 57.3831C53.2286 57.3831 53.3897 57.338 53.5373 57.2478C53.6894 57.1577 53.8101 57.0292 53.8996 56.8624C53.9935 56.6956 54.0405 56.4972 54.0405 56.2673Z" fill="#BF272D"/>
</svg>
