<svg width="61" height="60" viewBox="0 0 61 60" fill="none" xmlns="http://www.w3.org/2000/svg">
<rect x="0.25" width="60" height="60" rx="20" fill="#D7777B" fill-opacity="0.2"/>
<path d="M15.482 46C14.5607 46 13.792 45.692 13.176 45.076C12.56 44.46 12.2513 43.6907 12.25 42.768V23.232C12.25 22.3107 12.5587 21.542 13.176 20.926C13.7933 20.31 14.5613 20.0013 15.48 20H24.25V17.23C24.25 16.31 24.5587 15.5413 25.176 14.924C25.7933 14.3067 26.562 13.9987 27.482 14H33.02C33.94 14 34.7087 14.308 35.326 14.924C35.9433 15.54 36.2513 16.3087 36.25 17.23V20H45.02C45.94 20 46.708 20.3087 47.324 20.926C47.94 21.5433 48.2487 22.312 48.25 23.232V31.628C47.9313 31.4253 47.612 31.2487 47.292 31.098C46.972 30.9487 46.6247 30.8087 46.25 30.678V23.232C46.25 22.872 46.1347 22.5767 45.904 22.346C45.6733 22.1153 45.3787 22 45.02 22H15.48C15.1213 22 14.8267 22.1153 14.596 22.346C14.3653 22.5767 14.25 22.872 14.25 23.232V42.77C14.25 43.1287 14.3653 43.4233 14.596 43.654C14.8267 43.8847 15.122 44 15.482 44H30.4C30.4747 44.3667 30.5547 44.7107 30.64 45.032C30.724 45.352 30.826 45.6747 30.946 46H15.482ZM26.25 20H34.25V17.23C34.25 16.8713 34.1347 16.5767 33.904 16.346C33.6733 16.1153 33.3787 16 33.02 16H27.48C27.1213 16 26.8267 16.1153 26.596 16.346C26.3653 16.5767 26.25 16.8713 26.25 17.23V20ZM42.25 50C40.022 50 38.132 49.224 36.58 47.672C35.0267 46.1173 34.25 44.2267 34.25 42C34.25 39.7733 35.0267 37.8833 36.58 36.33C38.1333 34.7767 40.0233 34 42.25 34C44.4767 34 46.3673 34.7767 47.922 36.33C49.4767 37.8833 50.2527 39.7733 50.25 42C50.2473 44.2267 49.4713 46.1173 47.922 47.672C46.3727 49.2267 44.482 50.0027 42.25 50ZM43.02 41.678V36.232H41.48V42.324L45.55 46.392L46.642 45.3L43.02 41.678Z" fill="#BF272D"/>
</svg>
