<svg width="26" height="27" viewBox="0 0 26 27" fill="none" xmlns="http://www.w3.org/2000/svg">
<path d="M17.0625 2.125C15.9206 2.12474 14.7945 2.39196 13.7745 2.90525C12.7545 3.41854 11.8689 4.16363 11.1887 5.08081C10.5084 5.99798 10.0525 7.06175 9.85743 8.18685C9.66235 9.31195 9.73352 10.4671 10.0652 11.5598L1.625 20V24.875H6.5L14.9403 16.4347C15.946 16.74 17.0058 16.8249 18.0474 16.6836C19.089 16.5423 20.0878 16.1781 20.9759 15.6158C21.864 15.0535 22.6204 14.3064 23.1936 13.4253C23.7668 12.5443 24.1434 11.55 24.2976 10.5103C24.4518 9.47053 24.38 8.40977 24.0872 7.40027C23.7943 6.39078 23.2873 5.45628 22.6007 4.66046C21.914 3.86463 21.0639 3.2262 20.1081 2.78866C19.1524 2.35112 18.1136 2.12476 17.0625 2.125ZM17.0625 15.125C16.5031 15.1248 15.9468 15.0422 15.4115 14.8796L14.4796 14.5969L13.7914 15.2851L11.2068 17.8696L10.0864 16.75L8.9375 17.8989L10.0579 19.0193L8.76931 20.3079L7.64887 19.1875L6.5 20.3364L7.62044 21.4568L5.82725 23.25H3.25V20.6727L11.2141 12.7086L11.9031 12.0204L11.6204 11.0885C11.2731 9.94368 11.2957 8.71851 11.6848 7.58725C12.074 6.45599 12.81 5.47626 13.7882 4.78742C14.7663 4.09858 15.9367 3.73571 17.1329 3.75043C18.3292 3.76515 19.4903 4.1567 20.4512 4.8694C21.4121 5.58209 22.1237 6.57963 22.485 7.72012C22.8462 8.86061 22.8386 10.086 22.4633 11.2219C22.088 12.3578 21.364 13.3465 20.3944 14.0472C19.4247 14.748 18.2588 15.1251 17.0625 15.125Z" fill="#D7777B"/>
<path d="M17.875 10.25C18.7725 10.25 19.5 9.52246 19.5 8.625C19.5 7.72754 18.7725 7 17.875 7C16.9775 7 16.25 7.72754 16.25 8.625C16.25 9.52246 16.9775 10.25 17.875 10.25Z" fill="#D7777B"/>
</svg>
