<svg width="29" height="29" viewBox="0 0 29 29" fill="none" xmlns="http://www.w3.org/2000/svg">
<path d="M19.6771 2.50696e-07C18.2216 -0.000333557 16.7863 0.340301 15.4861 0.994606C14.186 1.64891 13.0572 2.59869 12.1901 3.76784C11.3231 4.93699 10.742 6.29299 10.4933 7.72719C10.2446 9.16139 10.3354 10.6339 10.7582 12.0267L0 22.7857V29H6.21382L16.972 18.241C18.254 18.6302 19.6049 18.7384 20.9325 18.5582C22.2601 18.3781 23.5333 17.9138 24.6652 17.197C25.7972 16.4803 26.7614 15.5279 27.492 14.4048C28.2227 13.2817 28.7026 12.0143 28.8992 10.6889C29.0957 9.36353 29.0042 8.01135 28.631 6.72452C28.2577 5.43769 27.6115 4.24646 26.7362 3.23201C25.861 2.21756 24.7773 1.40373 23.5592 0.845982C22.341 0.288238 21.0169 -0.00031048 19.6771 2.50696e-07ZM19.6771 16.5714C18.9641 16.5712 18.255 16.4658 17.5727 16.2586L16.3848 15.8982L12.2133 20.0701L10.7851 18.6429L9.32073 20.1074L10.7489 21.5356L9.10636 23.1783L7.67821 21.75L6.21382 23.2145L7.64197 24.6427L5.35631 26.9286H2.07127V23.6433L13.1008 12.614L12.7404 11.426C12.2978 9.96667 12.3265 8.40491 12.8226 6.96287C13.3187 5.52082 14.2568 4.27194 15.5035 3.39386C16.7503 2.51578 18.2421 2.05322 19.7669 2.07198C21.2917 2.09074 22.7717 2.58986 23.9964 3.49835C25.2212 4.40684 26.1283 5.67843 26.5888 7.13224C27.0492 8.58605 27.0395 10.1481 26.5611 11.596C26.0827 13.044 25.1599 14.3043 23.924 15.1976C22.6881 16.0908 21.202 16.5716 19.6771 16.5714Z" fill="#BF272D"/>
<path d="M20.7127 10.3571C21.8567 10.3571 22.784 9.42973 22.784 8.28572C22.784 7.1417 21.8567 6.21429 20.7127 6.21429C19.5688 6.21429 18.6415 7.1417 18.6415 8.28572C18.6415 9.42973 19.5688 10.3571 20.7127 10.3571Z" fill="#BF272D"/>
</svg>
