<svg width="200" height="200" viewBox="0 0 200 200" fill="none" xmlns="http://www.w3.org/2000/svg">
<path d="M100 180C121.217 180 141.566 171.571 156.569 156.569C171.571 141.566 180 121.217 180 100C180 78.7827 171.571 58.4344 156.569 43.4315C141.566 28.4285 121.217 20 100 20C78.7827 20 58.4344 28.4285 43.4315 43.4315C28.4285 58.4344 20 78.7827 20 100C20 121.217 28.4285 141.566 43.4315 156.569C58.4344 171.571 78.7827 180 100 180ZM100 0C113.132 0 126.136 2.58658 138.268 7.61205C150.401 12.6375 161.425 20.0035 170.711 29.2893C179.997 38.5752 187.362 49.5991 192.388 61.7317C197.413 73.8642 200 86.8678 200 100C200 126.522 189.464 151.957 170.711 170.711C151.957 189.464 126.522 200 100 200C44.7 200 0 155 0 100C0 73.4784 10.5357 48.043 29.2893 29.2893C48.043 10.5357 73.4784 0 100 0ZM105 50V102.5L150 129.2L142.5 141.5L90 110V50H105Z" fill="#A7A5A5" fill-opacity="0.15"/>
</svg>
