<svg width="200" height="152" viewBox="0 0 200 152" fill="none" xmlns="http://www.w3.org/2000/svg">
<path d="M42.3077 143.556C51.2843 143.556 59.8932 139.997 66.2405 133.662C72.5879 127.328 76.1538 118.736 76.1538 109.778C76.1538 100.819 72.5879 92.2278 66.2405 85.8933C59.8932 79.5587 51.2843 76 42.3077 76C33.3311 76 24.7222 79.5587 18.3748 85.8933C12.0275 92.2278 8.46154 100.819 8.46154 109.778C8.46154 118.736 12.0275 127.328 18.3748 133.662C24.7222 139.997 33.3311 143.556 42.3077 143.556ZM42.3077 67.5556C47.8636 67.5556 53.3651 68.6477 58.4981 70.7695C63.6312 72.8914 68.2951 76.0015 72.2237 79.9222C76.1524 83.8429 79.2687 88.4974 81.3949 93.62C83.5211 98.7427 84.6154 104.233 84.6154 109.778C84.6154 120.976 80.158 131.715 72.2237 139.633C64.2895 147.552 53.5284 152 42.3077 152C18.9115 152 0 133 0 109.778C0 98.5797 4.4574 87.8404 12.3916 79.9222C20.3259 72.004 31.087 67.5556 42.3077 67.5556ZM44.4231 88.6667V110.833L63.4615 122.107L60.2885 127.3L38.0769 114V88.6667H44.4231Z" fill="#A7A5A5" fill-opacity="0.15"/>
<path d="M30.3846 0C23.9582 0 17.795 2.54641 13.2509 7.07906C8.70672 11.6117 6.15385 17.7593 6.15385 24.1694V68.5324C9.60673 64.2786 13.6896 60.5565 18.2692 57.4991V24.1694C18.2692 20.9644 19.5457 17.8906 21.8177 15.6243C24.0898 13.3579 27.1714 12.0847 30.3846 12.0847H175.769C178.982 12.0847 182.064 13.3579 184.336 15.6243C186.608 17.8906 187.885 20.9644 187.885 24.1694V120.847C187.885 124.052 186.608 127.126 184.336 129.392C182.064 131.659 178.982 132.932 175.769 132.932H93.8935C92.9708 134.296 91.9927 135.623 90.9615 136.908V145.017H175.769C182.196 145.017 188.359 142.47 192.903 137.938C197.447 133.405 200 127.257 200 120.847V24.1694C200 17.7593 197.447 11.6117 192.903 7.07906C188.359 2.54641 182.196 0 175.769 0H30.3846ZM42.5 42.2965C42.5 40.694 43.1382 39.1571 44.2743 38.0239C45.4103 36.8908 46.9511 36.2542 48.5577 36.2542H157.596C159.203 36.2542 160.744 36.8908 161.88 38.0239C163.016 39.1571 163.654 40.694 163.654 42.2965C163.654 43.899 163.016 45.4359 161.88 46.5691C160.744 47.7023 159.203 48.3389 157.596 48.3389H48.5577C46.9511 48.3389 45.4103 47.7023 44.2743 46.5691C43.1382 45.4359 42.5 43.899 42.5 42.2965ZM109.135 84.593C107.528 84.593 105.987 85.2296 104.851 86.3628C103.715 87.4959 103.077 89.0329 103.077 90.6354C103.077 92.2379 103.715 93.7748 104.851 94.908C105.987 96.0411 107.528 96.6777 109.135 96.6777H157.596C159.203 96.6777 160.744 96.0411 161.88 94.908C163.016 93.7748 163.654 92.2379 163.654 90.6354C163.654 89.0329 163.016 87.4959 161.88 86.3628C160.744 85.2296 159.203 84.593 157.596 84.593H109.135Z" fill="#A7A5A5" fill-opacity="0.15"/>
</svg>
