<svg width="22" height="22" viewBox="0 0 22 22" fill="none" xmlns="http://www.w3.org/2000/svg">
<path d="M9.28178 12.1312L0.736621 7.74827C0.606049 7.68145 0.497306 7.57869 0.423214 7.45211C0.349122 7.32552 0.312771 7.18039 0.318448 7.03383C0.324124 6.88726 0.371592 6.74538 0.455252 6.6249C0.538913 6.50443 0.655278 6.41039 0.790626 6.35387L0.888501 6.32048L20.8202 0.970105C20.9487 0.935549 21.084 0.934916 21.2128 0.968271C21.3416 1.00162 21.4595 1.06782 21.5551 1.1604C21.6507 1.25298 21.7206 1.36876 21.758 1.49644C21.7955 1.62412 21.7991 1.75933 21.7687 1.88885L21.7338 1.99936L14.055 21.155C13.806 21.775 12.9549 21.7955 12.661 21.2296L12.6193 21.1363L9.28178 12.1312ZM3.21269 7.28921L9.78209 10.6588L14.8647 6.14767C15.0037 6.0243 15.1827 5.95544 15.3686 5.95383C15.5544 5.95221 15.7345 6.01795 15.8757 6.13888L15.9505 6.21235C16.0739 6.35149 16.1428 6.53066 16.1442 6.71666C16.1457 6.90266 16.0797 7.0829 15.9585 7.22398L15.8858 7.29811L10.8016 11.8106L13.3683 18.7329L19.7339 2.85434L3.21269 7.28921Z" fill="#F6F6F6"/>
</svg>
