<svg width="60" height="60" viewBox="0 0 60 60" fill="none" xmlns="http://www.w3.org/2000/svg">
<rect width="60" height="60" rx="20" fill="#44B40D" fill-opacity="0.2"/>
<path d="M19.028 10C16.42 10.258 14.664 10.838 13.352 12.152C11.002 14.506 11.002 18.296 11.002 25.878V33.918C11.002 41.498 11.002 45.29 13.352 47.646C15.702 50.002 19.486 50 27.052 50H31.066C38.632 50 42.416 50 44.766 47.646C46.9 45.506 47.098 42.212 47.116 35.954" stroke="#44B40D" stroke-width="2" stroke-linecap="round" stroke-linejoin="round"/>
<path d="M27.0524 20L29.0584 27C30.1784 29.22 31.5844 29.8 35.0784 30C37.8564 29.932 39.4684 29.604 40.8444 28.408C41.7824 27.592 42.2064 26.362 42.4124 25.138L43.1004 21M48.1164 17V27M23.2024 15.866C26.3764 13.232 29.2044 11.818 35.0704 10.262C35.7322 10.0873 36.4284 10.0908 37.0884 10.272C42.2804 11.7 45.0844 12.968 48.8404 15.788C49.0004 15.908 49.0484 16.132 48.9364 16.298C47.7104 18.102 44.9724 19.564 38.2564 22.168C36.8575 22.7063 35.3072 22.6977 33.9144 22.144C26.7624 19.304 23.4744 17.784 23.0744 16.206C23.0614 16.143 23.0665 16.0777 23.0892 16.0175C23.1118 15.9573 23.1511 15.9048 23.2024 15.866Z" stroke="#44B40D" stroke-width="2" stroke-linecap="round" stroke-linejoin="round"/>
</svg>
