<svg width="61" height="60" viewBox="0 0 61 60" fill="none" xmlns="http://www.w3.org/2000/svg">
<rect x="0.25" width="60" height="60" rx="20" fill="#44B40D" fill-opacity="0.2"/>
<path d="M10.27 37V23H21.01V25.7H13.37V28.56H20.21V31.14H13.37V34.28H21.15V37H10.27ZM30.735 37.2C29.0683 37.2 27.6417 36.9067 26.455 36.32C25.2683 35.7333 24.3617 34.9 23.735 33.82C23.1083 32.74 22.795 31.46 22.795 29.98C22.795 28.8067 22.995 27.7733 23.395 26.88C23.795 25.9867 24.3483 25.24 25.055 24.64C25.775 24.0267 26.6083 23.5667 27.555 23.26C28.5017 22.9533 29.515 22.8 30.595 22.8C31.235 22.8 31.875 22.8667 32.515 23C33.1683 23.12 33.8083 23.3 34.435 23.54L35.075 23.8L34.555 26.14L33.775 26C33.215 25.88 32.675 25.7867 32.155 25.72C31.6483 25.6533 31.1617 25.62 30.695 25.62C29.7617 25.62 28.9417 25.7733 28.235 26.08C27.5283 26.3867 26.975 26.8667 26.575 27.52C26.175 28.16 25.975 28.9933 25.975 30.02C25.975 31.02 26.1617 31.8533 26.535 32.52C26.9217 33.1733 27.475 33.6667 28.195 34C28.915 34.32 29.7883 34.48 30.815 34.48C31.1883 34.48 31.575 34.46 31.975 34.42C32.375 34.3667 32.7817 34.2933 33.195 34.2V31.52H29.595V29.04H36.095V35.84C35.6417 36.0933 35.115 36.3267 34.515 36.54C33.9283 36.74 33.315 36.9 32.675 37.02C32.035 37.14 31.3883 37.2 30.735 37.2ZM38.6294 37V23H45.2294C46.2694 23 47.156 23.1933 47.8894 23.58C48.636 23.9667 49.2027 24.52 49.5894 25.24C49.976 25.96 50.1694 26.8133 50.1694 27.8C50.1694 28.8 49.9627 29.6733 49.5494 30.42C49.1494 31.1533 48.576 31.72 47.8294 32.12C47.0827 32.52 46.2027 32.72 45.1894 32.72H41.7094L41.7294 37H38.6294ZM41.7294 30.04H44.6294C45.3894 30.04 45.9694 29.8667 46.3694 29.52C46.7827 29.16 46.9894 28.5933 46.9894 27.82C46.9894 27.0333 46.7827 26.48 46.3694 26.16C45.9694 25.8267 45.3894 25.66 44.6294 25.66H41.7294V30.04Z" fill="#44B40D"/>
</svg>
