<svg width="61" height="60" viewBox="0 0 61 60" fill="none" xmlns="http://www.w3.org/2000/svg">
<rect x="0.5" width="60" height="60" rx="20" fill="#44B40D" fill-opacity="0.2"/>
<path d="M41.6418 30C40.2015 28.7806 38.3706 28.1334 36.4918 28.1795H24.4152C23.8646 28.1935 23.3168 28.0952 22.8047 27.8904C22.2926 27.6856 21.8266 27.3785 21.4348 26.9876C21.0429 26.5966 20.7332 26.1299 20.5241 25.6152C20.315 25.1005 20.2109 24.5485 20.218 23.9922C20.2046 23.7757 20.2046 23.5585 20.218 23.342C20.3804 22.348 20.8964 21.448 21.6693 20.8111C22.4421 20.1742 23.4185 19.8442 24.4152 19.883H36.3116C37.282 19.8821 38.2212 20.2294 38.9616 20.8629C39.702 21.4965 40.1956 22.3751 40.3543 23.342H44.2168C44.0551 21.3366 43.1521 19.4662 41.6874 18.1025C40.2228 16.7387 38.3036 15.9817 36.3116 15.9818H32.2431V10H29.0244V15.9818H24.4152C22.4232 15.9817 20.5041 16.7387 19.0394 18.1025C17.5747 19.4662 16.6718 21.3366 16.5101 23.342C16.4966 23.5585 16.4966 23.7757 16.5101 23.9922C16.5101 25.0407 16.7145 26.079 17.1118 27.0477C17.5091 28.0164 18.0914 28.8966 18.8254 29.638C20.3079 31.1354 22.3186 31.9766 24.4152 31.9766H36.6206C37.1669 31.9627 37.7103 32.0594 38.219 32.261C38.7277 32.4626 39.1913 32.765 39.5824 33.1504C39.9736 33.5358 40.2844 33.9963 40.4966 34.5049C40.7087 35.0136 40.818 35.5599 40.8178 36.1118C40.8426 36.4061 40.8426 36.7019 40.8178 36.9961C40.6133 37.9112 40.1069 38.7289 39.3816 39.3149C38.6564 39.9009 37.7554 40.2205 36.8266 40.2211H24.7242C23.7954 40.2205 22.8944 39.9009 22.1692 39.3149C21.4439 38.7289 20.9375 37.9112 20.733 36.9961H16.8448C17.0661 38.9502 17.9915 40.7538 19.4445 42.0632C20.8976 43.3725 22.7769 44.0962 24.7242 44.0962H29.0244V50H32.2431V44.0962H36.6206C38.5679 44.0962 40.4472 43.3725 41.9003 42.0632C43.3534 40.7538 44.2787 38.9502 44.5 36.9961V36.1118C44.4969 34.9437 44.2392 33.7905 43.7452 32.7342C43.2513 31.6779 42.5331 30.7444 41.6418 30Z" fill="#44B40D"/>
</svg>
