<svg width="61" height="60" viewBox="0 0 61 60" fill="none" xmlns="http://www.w3.org/2000/svg">
<rect x="0.5" width="60" height="60" rx="20" fill="#D7777B" fill-opacity="0.2"/>
<path d="M30.5067 50C27.7422 50 25.1422 49.4756 22.7067 48.4267C20.2726 47.3763 18.1548 45.9511 16.3533 44.1511C14.5519 42.3511 13.1259 40.2356 12.0756 37.8044C11.0252 35.3733 10.5 32.7741 10.5 30.0067C10.5 27.2393 11.0252 24.6393 12.0756 22.2067C13.1259 19.7726 14.5511 17.6548 16.3511 15.8533C18.1511 14.0519 20.2674 12.6259 22.7 11.5756C25.1326 10.5252 27.7326 10 30.5 10C30.8156 10 31.0793 10.1067 31.2911 10.32C31.503 10.5333 31.6096 10.797 31.6111 11.1111V28.0889C31.9933 28.3259 32.2741 28.6015 32.4533 28.9156C32.6326 29.2296 32.7222 29.5926 32.7222 30.0044C32.7222 30.597 32.5007 31.1148 32.0578 31.5578C31.6148 32.0007 31.0956 32.2222 30.5 32.2222C29.9044 32.2222 29.3852 32.0007 28.9422 31.5578C28.4993 31.1148 28.2778 30.5985 28.2778 30.0089C28.2778 29.6 28.3674 29.2348 28.5467 28.9133C28.7259 28.5919 29.0067 28.3178 29.3889 28.0911V21.2178C27.1785 21.48 25.3296 22.4407 23.8422 24.1C22.3548 25.7593 21.6111 27.7259 21.6111 30C21.6111 32.4444 22.4815 34.537 24.2222 36.2778C25.963 38.0185 28.0556 38.8889 30.5 38.8889C32.9444 38.8889 35.037 38.0185 36.7778 36.2778C38.5185 34.537 39.3889 32.4444 39.3889 30C39.3889 28.8652 39.1859 27.8059 38.78 26.8222C38.3741 25.8356 37.8304 24.943 37.1489 24.1444C36.9504 23.8837 36.8482 23.6096 36.8422 23.3222C36.8363 23.0333 36.9482 22.7741 37.1778 22.5444C37.4296 22.2926 37.7044 22.1741 38.0022 22.1889C38.3 22.2037 38.563 22.3415 38.7911 22.6022C39.6711 23.6081 40.3615 24.7326 40.8622 25.9756C41.363 27.2185 41.6126 28.56 41.6111 30C41.6111 33.0859 40.5319 35.7096 38.3733 37.8711C36.2148 40.0326 33.5941 41.1126 30.5111 41.1111C27.4281 41.1096 24.8022 40.0296 22.6333 37.8711C20.4704 35.7096 19.3889 33.0859 19.3889 30C19.3889 27.0948 20.3519 24.5956 22.2778 22.5022C24.2037 20.4089 26.5741 19.2311 29.3889 18.9689V12.2489C24.7252 12.52 20.7815 14.3578 17.5578 17.7622C14.3341 21.1667 12.7222 25.2459 12.7222 30C12.7222 34.963 14.4444 39.1667 17.8889 42.6111C21.3333 46.0556 25.537 47.7778 30.5 47.7778C35.463 47.7778 39.6667 46.0556 43.1111 42.6111C46.5556 39.1667 48.2778 34.963 48.2778 30C48.2778 27.6519 47.8689 25.46 47.0511 23.4244C46.2333 21.3889 45.077 19.5793 43.5822 17.9956C43.3452 17.7422 43.2052 17.4504 43.1622 17.12C43.1193 16.7896 43.2207 16.5015 43.4667 16.2556C43.7126 16.0096 43.9911 15.9037 44.3022 15.9378C44.6133 15.9719 44.8874 16.1148 45.1244 16.3667C46.7911 18.1889 48.1037 20.2504 49.0622 22.5511C50.0207 24.8533 50.5 27.3363 50.5 30C50.5 32.7674 49.9756 35.3674 48.9267 37.8C47.8778 40.2326 46.4526 42.3496 44.6511 44.1511C42.8496 45.9526 40.7341 47.377 38.3044 48.4244C35.8748 49.4719 33.2756 49.997 30.5067 50Z" fill="#BF272D"/>
</svg>
