<svg width="9" height="16" viewBox="0 0 9 16" fill="none" xmlns="http://www.w3.org/2000/svg">
<path d="M6 7.25H5.25V4.25H6.75C6.94891 4.25 7.13968 4.32902 7.28033 4.46967C7.42098 4.61032 7.5 4.80109 7.5 5C7.5 5.19891 7.57902 5.38968 7.71967 5.53033C7.86032 5.67098 8.05109 5.75 8.25 5.75C8.44891 5.75 8.63968 5.67098 8.78033 5.53033C8.92098 5.38968 9 5.19891 9 5C9 4.40326 8.76295 3.83097 8.34099 3.40901C7.91903 2.98705 7.34674 2.75 6.75 2.75H5.25V1.25C5.25 1.05109 5.17098 0.860322 5.03033 0.71967C4.88968 0.579018 4.69891 0.5 4.5 0.5C4.30109 0.5 4.11032 0.579018 3.96967 0.71967C3.82902 0.860322 3.75 1.05109 3.75 1.25V2.75H3C2.20435 2.75 1.44129 3.06607 0.87868 3.62868C0.31607 4.19129 0 4.95435 0 5.75C0 6.54565 0.31607 7.30871 0.87868 7.87132C1.44129 8.43393 2.20435 8.75 3 8.75H3.75V11.75H2.25C2.05109 11.75 1.86032 11.671 1.71967 11.5303C1.57902 11.3897 1.5 11.1989 1.5 11C1.5 10.8011 1.42098 10.6103 1.28033 10.4697C1.13968 10.329 0.948912 10.25 0.75 10.25C0.551088 10.25 0.360322 10.329 0.21967 10.4697C0.0790178 10.6103 0 10.8011 0 11C0 11.5967 0.237053 12.169 0.65901 12.591C1.08097 13.0129 1.65326 13.25 2.25 13.25H3.75V14.75C3.75 14.9489 3.82902 15.1397 3.96967 15.2803C4.11032 15.421 4.30109 15.5 4.5 15.5C4.69891 15.5 4.88968 15.421 5.03033 15.2803C5.17098 15.1397 5.25 14.9489 5.25 14.75V13.25H6C6.79565 13.25 7.55871 12.9339 8.12132 12.3713C8.68393 11.8087 9 11.0456 9 10.25C9 9.45435 8.68393 8.69129 8.12132 8.12868C7.55871 7.56607 6.79565 7.25 6 7.25ZM3.75 7.25H3C2.60218 7.25 2.22064 7.09196 1.93934 6.81066C1.65804 6.52936 1.5 6.14782 1.5 5.75C1.5 5.35218 1.65804 4.97064 1.93934 4.68934C2.22064 4.40804 2.60218 4.25 3 4.25H3.75V7.25ZM6 11.75H5.25V8.75H6C6.39782 8.75 6.77936 8.90804 7.06066 9.18934C7.34196 9.47064 7.5 9.85218 7.5 10.25C7.5 10.6478 7.34196 11.0294 7.06066 11.3107C6.77936 11.592 6.39782 11.75 6 11.75Z" fill="#44B40D"/>
</svg>
