<svg width="61" height="60" viewBox="0 0 61 60" fill="none" xmlns="http://www.w3.org/2000/svg">
<rect x="0.75" width="60" height="60" rx="20" fill="#D7777B" fill-opacity="0.2"/>
<path d="M47.4502 37.2098C47.4328 42.6855 47.2409 45.5677 45.1727 47.4402C42.8952 49.5 39.2279 49.5 31.8953 49.5H28.0051C20.6725 49.5 17.0052 49.5017 14.7277 47.4402C12.4502 45.3787 12.4502 42.0607 12.4502 35.4282V28.3933C12.4502 21.759 12.4502 18.4428 14.7277 16.383C15.9992 15.2332 17.7011 14.7257 20.2286 14.5H30.1353" stroke="#BF272D" stroke-width="2" stroke-linecap="round" stroke-linejoin="round"/>
<path d="M40.2502 19.3C42.6802 19.3 44.6502 17.3301 44.6502 14.9C44.6502 12.4699 42.6802 10.5 40.2502 10.5C37.8201 10.5 35.8502 12.4699 35.8502 14.9C35.8502 17.3301 37.8201 19.3 40.2502 19.3Z" stroke="#BF272D" stroke-width="2"/>
<path d="M49.0502 27.55C49.0502 30.2835 49.0502 32.5 40.2502 32.5C31.4502 32.5 31.4502 30.2835 31.4502 27.55C31.4502 24.8165 35.3904 22.6 40.2502 22.6C45.11 22.6 49.0502 24.8165 49.0502 27.55Z" stroke="#BF272D" stroke-width="2"/>
</svg>
