<svg width="32" height="31" viewBox="0 0 32 31" fill="none" xmlns="http://www.w3.org/2000/svg">
<path d="M31 15.3983C31.0047 18.2574 30.119 21.0526 28.4567 23.4248C27.0857 25.3882 25.2319 26.997 23.0592 28.1089C20.8866 29.2209 18.462 29.8016 16 29.7999C13.5379 29.8016 11.1134 29.2209 8.94073 28.1089C6.76808 26.997 4.9143 25.3882 3.54333 23.4248C2.23788 21.5564 1.4065 19.4204 1.11584 17.188C0.825183 14.9555 1.08333 12.6888 1.86958 10.5694C2.65583 8.44999 3.94832 6.53694 5.64344 4.98359C7.33856 3.43024 9.38915 2.27979 11.6308 1.62447C13.8725 0.969155 16.2429 0.827195 18.5521 1.20997C20.8612 1.59275 23.0448 2.48962 24.9278 3.82869C26.8109 5.16775 28.3409 6.91176 29.3954 8.9209C30.4499 10.9301 30.9994 13.1484 31 15.3983Z" stroke="#BF272D" stroke-width="2"/>
<path d="M18.0835 10.5978C18.0835 11.7019 17.1501 12.598 16.0001 12.598V14.9982C17.2157 14.9982 18.3815 14.5346 19.241 13.7094C20.1006 12.8841 20.5835 11.7648 20.5835 10.5978H18.0835ZM16.0001 12.598C14.8501 12.598 13.9168 11.7019 13.9168 10.5978H11.4168C11.4168 11.7648 11.8997 12.8841 12.7592 13.7094C13.6188 14.5346 14.7845 14.9982 16.0001 14.9982V12.598ZM13.9168 10.5978C13.9168 9.49363 14.8501 8.59753 16.0001 8.59753V6.19727C14.7845 6.19727 13.6188 6.66089 12.7592 7.48614C11.8997 8.31139 11.4168 9.43067 11.4168 10.5978H13.9168ZM16.0001 8.59753C17.1501 8.59753 18.0835 9.49363 18.0835 10.5978H20.5835C20.5835 9.43067 20.1006 8.31139 19.241 7.48614C18.3815 6.66089 17.2157 6.19727 16.0001 6.19727V8.59753ZM4.61013 24.7689L3.4118 24.4265L3.2168 25.0538L3.6618 25.5498L4.61013 24.7689ZM27.3901 24.7689L28.3401 25.5514L28.7834 25.0554L28.5884 24.4265L27.3901 24.7689ZM11.0001 21.399H21.0001V18.9987H11.0001V21.399ZM11.0001 18.9987C9.29516 18.9983 7.6356 19.5263 6.26835 20.5043C4.90111 21.4822 3.89924 22.8579 3.4118 24.4265L5.80846 25.1114C6.14221 24.0384 6.82775 23.0975 7.76314 22.4286C8.69854 21.7598 9.83381 21.3986 11.0001 21.399V18.9987ZM16.0001 28.5998C14.0158 28.6019 12.0546 28.1908 10.2519 27.3946C8.44922 26.5984 6.8479 25.4361 5.55846 23.988L3.6618 25.5498C5.1859 27.2604 7.0782 28.6349 9.20827 29.5755C11.3384 30.5162 13.6555 31.0022 16.0001 31V28.5998ZM21.0001 21.399C23.4501 21.399 25.5251 22.9639 26.1918 25.1114L28.5884 24.4265C28.101 22.8579 27.0991 21.4822 25.7319 20.5043C24.3646 19.5263 22.7051 18.9983 21.0001 18.9987V21.399ZM26.4418 23.988C25.1523 25.4361 23.551 26.5984 21.7483 27.3946C19.9456 28.1908 17.9844 28.6019 16.0001 28.5998V31C18.3447 31.0022 20.6619 30.5162 22.792 29.5755C24.922 28.6349 26.816 27.262 28.3401 25.5514L26.4418 23.988Z" fill="#BF272D"/>
</svg>
