<svg width="30" height="30" viewBox="0 0 30 30" fill="none" xmlns="http://www.w3.org/2000/svg">
<path d="M15 0C18.9782 0 22.7936 1.58035 25.6066 4.3934C28.4196 7.20644 30 11.0218 30 15C30 18.9782 28.4196 22.7936 25.6066 25.6066C22.7936 28.4196 18.9782 30 15 30C11.0218 30 7.20644 28.4196 4.3934 25.6066C1.58035 22.7936 0 18.9782 0 15C0 11.0218 1.58035 7.20644 4.3934 4.3934C7.20644 1.58035 11.0218 0 15 0ZM15 27.8571C18.4099 27.8571 21.6802 26.5026 24.0914 24.0914C26.5026 21.6802 27.8571 18.4099 27.8571 15C27.8571 11.5901 26.5026 8.31981 24.0914 5.90863C21.6802 3.49745 18.4099 2.14286 15 2.14286C11.5901 2.14286 8.31981 3.49745 5.90863 5.90863C3.49745 8.31981 2.14286 11.5901 2.14286 15C2.14286 18.4099 3.49745 21.6802 5.90863 24.0914C8.31981 26.5026 11.5901 27.8571 15 27.8571ZM16.6071 21.9643C16.6071 22.3905 16.4378 22.7993 16.1364 23.1007C15.835 23.4021 15.4262 23.5714 15 23.5714C14.5738 23.5714 14.165 23.4021 13.8636 23.1007C13.5622 22.7993 13.3929 22.3905 13.3929 21.9643C13.3929 21.538 13.5622 21.1293 13.8636 20.8279C14.165 20.5265 14.5738 20.3571 15 20.3571C15.4262 20.3571 15.835 20.5265 16.1364 20.8279C16.4378 21.1293 16.6071 21.538 16.6071 21.9643ZM15 6.42857C15.2842 6.42857 15.5567 6.54145 15.7576 6.74239C15.9585 6.94332 16.0714 7.21584 16.0714 7.5V17.1429C16.0714 17.427 15.9585 17.6995 15.7576 17.9005C15.5567 18.1014 15.2842 18.2143 15 18.2143C14.7158 18.2143 14.4433 18.1014 14.2424 17.9005C14.0415 17.6995 13.9286 17.427 13.9286 17.1429V7.5C13.9286 7.21584 14.0415 6.94332 14.2424 6.74239C14.4433 6.54145 14.7158 6.42857 15 6.42857Z" fill="#BF272D"/>
</svg>
