<svg width="108" height="108" viewBox="0 0 108 108" fill="none" xmlns="http://www.w3.org/2000/svg">
<path d="M54 4C81.615 4 104 26.385 104 54C104 81.615 81.615 104 54 104C26.385 104 4 81.615 4 54C4 26.385 26.385 4 54 4Z" fill="#D7777B" fill-opacity="0.3"/>
<path d="M54 74H54.04M54 34V59M104 54C104 26.385 81.615 4 54 4C26.385 4 4 26.385 4 54C4 81.615 26.385 104 54 104C81.615 104 104 81.615 104 54Z" stroke="#BF272D" stroke-width="7.5" stroke-miterlimit="10" stroke-linecap="round" stroke-linejoin="round"/>
</svg>
